<svg width="307" height="31" viewBox="0 0 307 31" fill="none" xmlns="http://www.w3.org/2000/svg">
<path d="M17.16 10.46C16.92 8.96667 16.4933 7.72667 15.88 6.74C15.2667 5.72667 14.48 4.96666 13.52 4.46C12.5867 3.95333 11.4933 3.71333 10.24 3.74C9.09333 3.74 8.08 4.06 7.2 4.7C6.34667 5.34 5.92 6.16667 5.92 7.18C5.92 8.00667 6.14667 8.72667 6.6 9.34C7.08 9.95333 7.8 10.5267 8.76 11.06C9.72 11.5933 10.9333 12.1667 12.4 12.78C13.4133 13.18 14.4533 13.6467 15.52 14.18C16.5867 14.7133 17.5733 15.3533 18.48 16.1C19.3867 16.82 20.12 17.6733 20.68 18.66C21.24 19.62 21.52 20.7533 21.52 22.06C21.52 23.6333 21.0933 25.0333 20.24 26.26C19.3867 27.4867 18.1867 28.4467 16.64 29.14C15.12 29.8067 13.3333 30.14 11.28 30.14C10.2133 30.14 9.05333 29.9667 7.8 29.62C6.57333 29.3 5.41333 28.82 4.32 28.18L4.44 29.86H1.36V20.5H4C4.37333 22.74 5.22667 24.4333 6.56 25.58C7.92 26.7 9.53333 27.26 11.4 27.26C12.36 27.26 13.2 27.0867 13.92 26.74C14.64 26.3933 15.2 25.94 15.6 25.38C16 24.7933 16.2 24.1667 16.2 23.5C16.2 22.5667 15.8667 21.7933 15.2 21.18C14.56 20.5667 13.7467 20.0467 12.76 19.62C11.8 19.1933 10.8133 18.78 9.8 18.38C8.52 17.8467 7.32 17.2867 6.2 16.7C5.10667 16.0867 4.14667 15.3933 3.32 14.62C2.49333 13.8467 1.85333 12.9667 1.4 11.98C0.946667 10.9667 0.72 9.80667 0.72 8.5C0.72 7.67333 0.88 6.82 1.2 5.94C1.52 5.03333 2.04 4.20667 2.76 3.46C3.48 2.68667 4.44 2.06 5.64 1.58C6.84 1.1 8.32 0.859999 10.08 0.859999C11.1467 0.859999 12.3067 1.02 13.56 1.34C14.84 1.66 15.9333 2.14 16.84 2.78L16.68 1.14H19.8V10.46H17.16ZM45.5863 10.54C45.5863 9.1 45.3863 7.91333 44.9863 6.98C44.5863 6.02 44.0129 5.31333 43.2663 4.86C42.5463 4.38 41.6796 4.15333 40.6663 4.18H38.7463V22.94C38.7463 23.66 38.7329 24.3533 38.7063 25.02C38.6796 25.6867 38.6396 26.1933 38.5863 26.54C39.0396 26.4867 39.6129 26.46 40.3063 26.46C41.0263 26.4333 41.5196 26.42 41.7863 26.42V29.5H30.1063V26.86C30.7196 26.8333 31.2263 26.7533 31.6263 26.62C32.0529 26.4867 32.3729 26.18 32.5863 25.7C32.8263 25.22 32.9463 24.4467 32.9463 23.38V4.22H31.1063C29.5863 4.24667 28.3863 4.76666 27.5063 5.78C26.6263 6.79333 26.1863 8.38 26.1863 10.54H23.5463L23.7463 1.5H47.9863L48.2263 10.54H45.5863ZM61.4419 4.14C60.8552 4.16667 60.3485 4.24667 59.9219 4.38C59.4952 4.51333 59.1619 4.82 58.9219 5.3C58.7085 5.75333 58.6019 6.52667 58.6019 7.62V18.62C58.6019 20.3 58.7752 21.6867 59.1219 22.78C59.4952 23.8467 59.9752 24.7 60.5619 25.34C61.1752 25.9533 61.8552 26.3933 62.6019 26.66C63.3752 26.9267 64.1619 27.0733 64.9619 27.1C66.4285 27.1533 67.6819 26.8733 68.7219 26.26C69.7619 25.6467 70.5619 24.7 71.1219 23.42C71.6819 22.14 71.9619 20.5133 71.9619 18.54V8.06C71.9619 7.34 71.9752 6.64667 72.0019 5.98C72.0285 5.31333 72.0685 4.80667 72.1219 4.46C71.6952 4.48667 71.1485 4.51333 70.4819 4.54C69.8419 4.54 69.3752 4.55333 69.0819 4.58V1.5H78.3619V4.14C77.7752 4.16667 77.2685 4.24667 76.8419 4.38C76.4152 4.51333 76.0819 4.82 75.8419 5.3C75.6285 5.75333 75.5219 6.52667 75.5219 7.62V17.62C75.5219 19.9133 75.2419 21.86 74.6819 23.46C74.1219 25.06 73.3352 26.3533 72.3219 27.34C71.3085 28.3267 70.1219 29.0467 68.7619 29.5C67.4019 29.9267 65.9219 30.14 64.3219 30.14C62.0819 30.14 60.2152 29.82 58.7219 29.18C57.2285 28.54 56.0419 27.6467 55.1619 26.5C54.3085 25.3533 53.6952 24.0333 53.3219 22.54C52.9752 21.0467 52.8019 19.4467 52.8019 17.74V8.06C52.8019 7.34 52.8152 6.64667 52.8419 5.98C52.8952 5.31333 52.9352 4.80667 52.9619 4.46C52.5352 4.48667 52.0019 4.51333 51.3619 4.54C50.7219 4.54 50.2552 4.55333 49.9619 4.58V1.5H61.4419V4.14ZM81.3125 26.86C81.9258 26.8333 82.4325 26.7533 82.8325 26.62C83.2592 26.4867 83.5792 26.18 83.7925 25.7C84.0325 25.22 84.1525 24.4467 84.1525 23.38V8.06C84.1525 7.34 84.1658 6.64667 84.1925 5.98C84.2458 5.31333 84.2858 4.80667 84.3125 4.46C83.8858 4.48667 83.3525 4.51333 82.7125 4.54C82.0725 4.54 81.6058 4.55333 81.3125 4.58V1.5L92.9525 1.46C95.5925 1.46 97.8725 1.86 99.7925 2.66C101.739 3.43333 103.326 4.48667 104.553 5.82C105.806 7.15333 106.739 8.64666 107.353 10.3C107.966 11.9267 108.273 13.5667 108.273 15.22C108.273 16.8467 107.979 18.5 107.393 20.18C106.833 21.86 105.939 23.4067 104.713 24.82C103.486 26.2067 101.886 27.34 99.9125 28.22C97.9392 29.0733 95.5525 29.5 92.7525 29.5H81.3125V26.86ZM89.9525 22.94C89.9525 23.66 89.9392 24.3533 89.9125 25.02C89.8858 25.6867 89.8458 26.1933 89.7925 26.54C90.0592 26.5133 90.4192 26.5133 90.8725 26.54C91.3525 26.54 91.8458 26.5533 92.3525 26.58C92.8592 26.58 93.2725 26.58 93.5925 26.58C95.0592 26.58 96.3125 26.2867 97.3525 25.7C98.4192 25.1133 99.2858 24.3267 99.9525 23.34C100.646 22.3267 101.153 21.1933 101.473 19.94C101.793 18.6867 101.953 17.3933 101.953 16.06C101.953 13.34 101.579 11.1133 100.833 9.38C100.086 7.64667 99.0325 6.35333 97.6725 5.5C96.3392 4.64667 94.7392 4.19333 92.8725 4.14C92.2325 4.11333 91.6858 4.18 91.2325 4.34C90.8058 4.47333 90.4858 4.78 90.2725 5.26C90.0592 5.74 89.9525 6.5 89.9525 7.54V22.94ZM122.597 4.14C122.011 4.16667 121.504 4.24667 121.077 4.38C120.651 4.51333 120.317 4.82 120.077 5.3C119.864 5.75333 119.757 6.52667 119.757 7.62V22.94C119.757 23.66 119.744 24.3533 119.717 25.02C119.691 25.6867 119.651 26.1933 119.597 26.54C120.024 26.4867 120.557 26.46 121.197 26.46C121.864 26.4333 122.331 26.42 122.597 26.42V29.5H111.117V26.86C111.731 26.8333 112.237 26.7533 112.637 26.62C113.064 26.4867 113.384 26.18 113.597 25.7C113.837 25.22 113.957 24.4467 113.957 23.38V8.06C113.957 7.34 113.971 6.64667 113.997 5.98C114.051 5.31333 114.091 4.80667 114.117 4.46C113.691 4.48667 113.157 4.51333 112.517 4.54C111.877 4.54 111.411 4.55333 111.117 4.58V1.5H122.597V4.14ZM139.437 30.14C136.904 30.14 134.744 29.7133 132.957 28.86C131.197 28.0067 129.771 26.8733 128.677 25.46C127.584 24.02 126.784 22.4333 126.277 20.7C125.771 18.9667 125.517 17.2333 125.517 15.5C125.517 13.82 125.797 12.1267 126.357 10.42C126.944 8.68666 127.811 7.1 128.957 5.66C130.131 4.22 131.597 3.06 133.357 2.18C135.117 1.3 137.184 0.859999 139.557 0.859999C141.984 0.859999 144.077 1.3 145.837 2.18C147.597 3.06 149.037 4.23333 150.157 5.7C151.277 7.14 152.104 8.71333 152.637 10.42C153.197 12.1267 153.477 13.82 153.477 15.5C153.477 17.1533 153.184 18.8333 152.597 20.54C152.037 22.2467 151.171 23.8333 149.997 25.3C148.851 26.74 147.397 27.9133 145.637 28.82C143.877 29.7 141.811 30.14 139.437 30.14ZM139.877 27.22C141.264 27.22 142.424 26.8867 143.357 26.22C144.291 25.5267 145.037 24.6333 145.597 23.54C146.157 22.4467 146.557 21.26 146.797 19.98C147.037 18.6733 147.157 17.4067 147.157 16.18C147.157 14.34 146.997 12.66 146.677 11.14C146.357 9.62 145.864 8.31333 145.197 7.22C144.531 6.1 143.677 5.24667 142.637 4.66C141.624 4.04666 140.424 3.75333 139.037 3.78C137.677 3.80667 136.531 4.18 135.597 4.9C134.664 5.59333 133.917 6.5 133.357 7.62C132.797 8.71333 132.397 9.91333 132.157 11.22C131.917 12.5267 131.797 13.7933 131.797 15.02C131.797 16.2733 131.931 17.6067 132.197 19.02C132.491 20.4333 132.944 21.7667 133.557 23.02C134.171 24.2733 134.997 25.2867 136.037 26.06C137.077 26.8333 138.357 27.22 139.877 27.22ZM180.407 30.14C177.527 30.14 175.074 29.5133 173.047 28.26C171.021 26.98 169.474 25.26 168.407 23.1C167.341 20.94 166.807 18.54 166.807 15.9C166.807 14.0867 167.087 12.2867 167.647 10.5C168.234 8.71333 169.101 7.1 170.247 5.66C171.394 4.19333 172.834 3.03333 174.567 2.18C176.327 1.3 178.367 0.859999 180.687 0.859999C181.407 0.859999 182.221 0.939999 183.127 1.1C184.034 1.23333 184.941 1.44667 185.847 1.74C186.781 2.03333 187.607 2.39333 188.327 2.82L188.167 1.14H191.247V10.46H188.647C188.407 8.96667 187.941 7.72667 187.247 6.74C186.554 5.75333 185.687 5.00667 184.647 4.5C183.607 3.99333 182.461 3.74 181.207 3.74C179.821 3.74 178.607 4.06 177.567 4.7C176.554 5.34 175.714 6.19333 175.047 7.26C174.381 8.32667 173.874 9.54 173.527 10.9C173.207 12.26 173.047 13.66 173.047 15.1C173.047 17.3933 173.367 19.4333 174.007 21.22C174.647 23.0067 175.581 24.42 176.807 25.46C178.061 26.4733 179.594 26.98 181.407 26.98C181.914 26.98 182.514 26.94 183.207 26.86C183.901 26.78 184.594 26.66 185.287 26.5C185.981 26.34 186.567 26.14 187.047 25.9V22.18C187.047 21.46 187.061 20.7667 187.087 20.1C187.141 19.4333 187.181 18.9267 187.207 18.58C186.781 18.6067 186.247 18.6333 185.607 18.66C184.967 18.66 184.501 18.6733 184.207 18.7V15.62H194.847V18.26C194.394 18.2867 193.994 18.34 193.647 18.42C193.327 18.5 193.047 18.66 192.807 18.9C192.594 19.1133 192.434 19.4467 192.327 19.9C192.221 20.3533 192.167 20.9667 192.167 21.74V28.14H191.207C190.434 28.14 189.661 28.2467 188.887 28.46C188.114 28.6733 187.287 28.9133 186.407 29.18C185.581 29.42 184.674 29.6333 183.687 29.82C182.701 30.0333 181.607 30.14 180.407 30.14ZM197.523 29.5V26.86C198.137 26.8333 198.643 26.7533 199.043 26.62C199.47 26.4867 199.79 26.18 200.003 25.7C200.243 25.22 200.363 24.4467 200.363 23.38V8.06C200.363 7.34 200.377 6.64667 200.403 5.98C200.457 5.31333 200.497 4.80667 200.523 4.46C200.097 4.48667 199.563 4.51333 198.923 4.54C198.283 4.54 197.817 4.55333 197.523 4.58V1.5H209.003V4.14C208.417 4.16667 207.91 4.24667 207.483 4.38C207.057 4.51333 206.723 4.82 206.483 5.3C206.27 5.75333 206.163 6.52667 206.163 7.62V13.86H217.163V8.06C217.163 7.34 217.177 6.64667 217.203 5.98C217.23 5.31333 217.27 4.80667 217.323 4.46C216.897 4.48667 216.363 4.51333 215.723 4.54C215.083 4.54 214.617 4.55333 214.323 4.58V1.5H225.803V4.14C225.217 4.16667 224.71 4.24667 224.283 4.38C223.857 4.51333 223.523 4.82 223.283 5.3C223.07 5.75333 222.963 6.52667 222.963 7.62V22.94C222.963 23.66 222.95 24.3533 222.923 25.02C222.897 25.6867 222.857 26.1933 222.803 26.54C223.23 26.4867 223.763 26.46 224.403 26.46C225.07 26.4333 225.537 26.42 225.803 26.42V29.5H214.323V26.86C214.937 26.8333 215.443 26.7533 215.843 26.62C216.27 26.4867 216.59 26.18 216.803 25.7C217.043 25.22 217.163 24.4467 217.163 23.38V16.9L206.163 17.02V22.94C206.163 23.66 206.15 24.3533 206.123 25.02C206.097 25.6867 206.057 26.1933 206.003 26.54C206.43 26.4867 206.963 26.46 207.603 26.46C208.27 26.4333 208.737 26.42 209.003 26.42V29.5H197.523ZM241.269 4.14C240.682 4.16667 240.176 4.24667 239.749 4.38C239.322 4.51333 238.989 4.82 238.749 5.3C238.536 5.75333 238.429 6.52667 238.429 7.62V22.94C238.429 23.66 238.416 24.3533 238.389 25.02C238.362 25.6867 238.322 26.1933 238.269 26.54C238.696 26.4867 239.229 26.46 239.869 26.46C240.536 26.4333 241.002 26.42 241.269 26.42V29.5H229.789V26.86C230.402 26.8333 230.909 26.7533 231.309 26.62C231.736 26.4867 232.056 26.18 232.269 25.7C232.509 25.22 232.629 24.4467 232.629 23.38V8.06C232.629 7.34 232.642 6.64667 232.669 5.98C232.722 5.31333 232.762 4.80667 232.789 4.46C232.362 4.48667 231.829 4.51333 231.189 4.54C230.549 4.54 230.082 4.55333 229.789 4.58V1.5H241.269V4.14ZM245.258 29.5V26.86C245.871 26.8333 246.378 26.7533 246.778 26.62C247.204 26.4867 247.524 26.18 247.738 25.7C247.978 25.22 248.098 24.4467 248.098 23.38V8.06C248.098 7.34 248.111 6.64667 248.138 5.98C248.191 5.31333 248.231 4.80667 248.258 4.46C247.831 4.48667 247.298 4.51333 246.658 4.54C246.018 4.54 245.551 4.55333 245.258 4.58V1.5C247.098 1.47333 248.938 1.46 250.778 1.46C252.644 1.46 254.498 1.44667 256.338 1.42C259.538 1.39333 262.071 1.99333 263.938 3.22C265.831 4.42 266.711 6.24666 266.578 8.7C266.524 9.47333 266.284 10.2333 265.858 10.98C265.431 11.7 264.791 12.3533 263.938 12.94C263.111 13.5267 262.071 13.9933 260.818 14.34V14.38C263.484 14.8067 265.444 15.7 266.698 17.06C267.951 18.3933 268.578 19.8867 268.578 21.54C268.578 23.2733 268.151 24.74 267.298 25.94C266.471 27.1133 265.324 28.0067 263.858 28.62C262.391 29.2067 260.724 29.5 258.858 29.5H245.258ZM253.738 26.66C254.218 26.66 254.671 26.66 255.098 26.66C255.524 26.66 255.951 26.66 256.378 26.66C256.804 26.6333 257.218 26.62 257.618 26.62C259.244 26.54 260.431 26.02 261.178 25.06C261.924 24.1 262.298 22.8867 262.298 21.42C262.298 20.1933 262.044 19.2333 261.538 18.54C261.031 17.82 260.378 17.3133 259.578 17.02C258.804 16.7267 257.991 16.58 257.138 16.58C256.471 16.58 255.898 16.58 255.418 16.58C254.938 16.58 254.431 16.5933 253.898 16.62V23.14C253.898 23.86 253.884 24.54 253.858 25.18C253.831 25.82 253.791 26.3133 253.738 26.66ZM253.898 13.78L255.978 13.74C257.098 13.7133 257.978 13.46 258.618 12.98C259.284 12.5 259.751 11.86 260.018 11.06C260.311 10.2333 260.458 9.34 260.458 8.38C260.458 7.31333 260.244 6.48667 259.818 5.9C259.391 5.28667 258.858 4.84667 258.218 4.58C257.578 4.31333 256.911 4.19333 256.218 4.22C255.791 4.22 255.404 4.28667 255.058 4.42C254.711 4.55333 254.431 4.86 254.218 5.34C254.004 5.79333 253.898 6.54 253.898 7.58V13.78ZM271.273 29.5V26.86C271.887 26.8333 272.393 26.7533 272.793 26.62C273.22 26.4867 273.54 26.18 273.753 25.7C273.993 25.22 274.113 24.4467 274.113 23.38V8.06C274.113 7.34 274.127 6.64667 274.153 5.98C274.207 5.31333 274.247 4.80667 274.273 4.46C273.847 4.48667 273.313 4.51333 272.673 4.54C272.033 4.54 271.567 4.55333 271.273 4.58V1.5H282.753V4.14C282.167 4.16667 281.66 4.24667 281.233 4.38C280.807 4.51333 280.473 4.82 280.233 5.3C280.02 5.75333 279.913 6.52667 279.913 7.62V22.94C279.913 23.66 279.9 24.34 279.873 24.98C279.847 25.62 279.807 26.1133 279.753 26.46H285.113C286.687 26.4333 287.913 25.8867 288.793 24.82C289.7 23.7267 290.153 22.0867 290.153 19.9H292.833L292.593 29.5H271.273ZM306.894 4.14C306.307 4.16667 305.801 4.24667 305.374 4.38C304.947 4.51333 304.614 4.82 304.374 5.3C304.161 5.75333 304.054 6.52667 304.054 7.62V22.94C304.054 23.66 304.041 24.3533 304.014 25.02C303.987 25.6867 303.947 26.1933 303.894 26.54C304.321 26.4867 304.854 26.46 305.494 26.46C306.161 26.4333 306.627 26.42 306.894 26.42V29.5H295.414V26.86C296.027 26.8333 296.534 26.7533 296.934 26.62C297.361 26.4867 297.681 26.18 297.894 25.7C298.134 25.22 298.254 24.4467 298.254 23.38V8.06C298.254 7.34 298.267 6.64667 298.294 5.98C298.347 5.31333 298.387 4.80667 298.414 4.46C297.987 4.48667 297.454 4.51333 296.814 4.54C296.174 4.54 295.707 4.55333 295.414 4.58V1.5H306.894V4.14Z" fill="#192D2B"/>
</svg>
