<svg width="40" height="40" viewBox="0 0 40 40" fill="none" xmlns="http://www.w3.org/2000/svg">
<g opacity="0.985">
<path d="M33.6713 5.19693C33.0095 2.42702 31.2485 1.14635 28.3885 1.35491C25.722 2.11818 24.5141 3.89365 24.7648 6.68134C25.4744 9.27138 27.1771 10.4793 29.8729 10.3051C32.5494 9.65323 33.8155 7.95052 33.6713 5.19693Z" fill="#192D2B"/>
<path d="M15.771 9.56282C15.0805 6.89442 13.3486 5.64286 10.5756 5.80813C7.90434 6.51852 6.66733 8.26492 6.86453 11.0472C7.55308 13.7285 9.28492 14.9655 12.06 14.7583C14.7494 14.0756 15.9863 12.3437 15.771 9.56282Z" fill="#192D2B"/>
<path d="M27.1661 13.2302C28.5053 13.2157 29.8441 13.2302 31.1827 13.2739C33.3617 13.6484 34.6861 14.9145 35.1557 17.0723C35.2139 20.4194 35.2139 23.7667 35.1557 27.1139C34.9347 27.8145 34.4544 28.193 33.7149 28.249C33.7295 31.3344 33.7149 34.4197 33.6713 37.5048C33.3066 38.4513 32.6227 38.8152 31.6193 38.5963C31.11 38.4362 30.7752 38.1014 30.6151 37.5921C30.3591 34.2758 30.1262 30.9577 29.9166 27.6378C29.8936 26.9739 29.5589 26.6975 28.9124 26.8083C28.7107 26.9512 28.5797 27.1404 28.5195 27.3758C28.3076 30.817 28.0456 34.2515 27.7336 37.6794C27.3302 38.5035 26.6753 38.8092 25.769 38.5963C25.2596 38.4362 24.9249 38.1014 24.7648 37.5921C24.7211 34.4779 24.7066 31.3635 24.7211 28.249C23.9947 28.2286 23.5144 27.8793 23.2804 27.2012C23.2221 23.7667 23.2221 20.3321 23.2804 16.8976C23.8316 14.8763 25.1269 13.6538 27.1661 13.2302Z" fill="#192D2B"/>
<path d="M13.0204 17.7271C11.8856 17.6835 10.7505 17.6689 9.61498 17.6835C7.48858 17.9027 6.10604 19.0379 5.46735 21.0889C5.3248 24.1125 5.29569 27.1396 5.38004 30.17C5.61597 30.8488 6.09622 31.1981 6.82079 31.2179C6.80624 33.3137 6.82079 35.4093 6.86445 37.5048C6.9898 38.061 7.32452 38.4249 7.86861 38.5963C8.73516 38.8104 9.39005 38.5338 9.83328 37.7667C10.1526 35.3301 10.4146 32.8852 10.6191 30.432C10.6336 30.3741 10.6481 30.3162 10.6626 30.2582C10.6772 30.1997 10.6919 30.1412 10.7065 30.0827C11.2649 29.5657 11.7015 29.653 12.0162 30.3447C12.2266 32.8263 12.4885 35.3003 12.8021 37.7667C12.9587 38.0108 13.1479 38.2291 13.3697 38.4216C14.4508 38.9205 15.2512 38.6439 15.7709 37.5921C15.8146 35.4676 15.8292 33.3428 15.8146 31.2179C16.5392 31.1981 17.0194 30.8488 17.2553 30.17C17.3136 27.2594 17.3136 24.3488 17.2553 21.4382C16.714 19.2088 15.3024 17.9717 13.0204 17.7271Z" fill="#192D2B"/>
</g>
</svg>
