<svg width="40" height="40" viewBox="0 0 40 40" fill="currentColor" xmlns="http://www.w3.org/2000/svg">
<g opacity="0.984">
<path d="M16.072 6.00952C14.5304 2.8565 11.9818 1.29787 8.42615 1.33361C4.64622 1.84419 2.31802 3.94971 1.44159 7.65018C1.04229 10.9994 2.24082 13.6107 5.03719 15.4844C8.07395 17.0552 10.9945 16.8638 13.7989 14.9101C16.5387 12.4441 17.2965 9.47715 16.072 6.00952Z" fill="#192D2B"/>
<path d="M36.943 2.195C32.9756 2.15398 29.008 2.14031 25.0403 2.15398C24.6893 2.21316 24.4275 2.40457 24.2551 2.72822C24.1732 6.94607 24.2008 11.1572 24.3378 15.3614C24.4381 15.4884 24.5621 15.5841 24.7097 15.6485C28.9596 15.7298 33.2028 15.7024 37.439 15.5665C37.6606 15.3865 37.7846 15.1541 37.8109 14.8692C37.8661 10.9042 37.8661 6.93927 37.8109 2.97432C37.7313 2.48517 37.442 2.2254 36.943 2.195Z" fill="#192D2B"/>
<path d="M26.6108 22.3342C29.5315 22.3205 32.4521 22.3342 35.3725 22.3752C35.5168 22.4139 35.6546 22.4686 35.7858 22.5393C36.0005 22.8496 36.1521 23.1915 36.2404 23.5647C36.9952 26.0581 37.7667 28.5464 38.5548 31.0298C38.784 31.5778 38.66 32.029 38.1829 32.3833C35.9552 34.0199 33.7509 35.6879 31.5703 37.3874C31.1401 37.6534 30.7268 37.6261 30.3304 37.3053C28.1497 35.6058 25.9455 33.9379 23.7178 32.3013C23.4935 32.1019 23.3557 31.8558 23.3045 31.563C24.1802 28.6752 25.0757 25.7903 25.9909 22.9085C26.1369 22.64 26.3436 22.4487 26.6108 22.3342Z" fill="#192D2B"/>
<path d="M9.79001 23.6467C9.59056 23.3255 9.30126 23.1614 8.92211 23.1545C8.76597 23.222 8.60065 23.2903 8.42616 23.3596C6.11509 27.3042 3.81445 31.2555 1.52425 35.2135C1.17796 35.8211 1.30195 36.2997 1.89621 36.6491C6.69717 36.7304 11.4913 36.703 16.2786 36.567C16.7695 36.0645 16.7833 35.5313 16.32 34.9674C15.2317 33.0806 14.1433 31.1938 13.055 29.3071C11.9667 27.4203 10.8783 25.5335 9.79001 23.6467Z" fill="#192D2B"/>
</g>
</svg>
