<svg width="40" height="40" viewBox="0 0 40 40" fill="currentColor" xmlns="http://www.w3.org/2000/svg">
<g opacity="0.949">
<path d="M22.5351 2.70018C26.1435 2.43704 29.0436 3.7387 31.2357 6.60517C32.5162 8.49467 33.0907 10.5887 32.959 12.8871C36.1278 13.3847 38.0192 15.2241 38.6332 18.405C38.9062 21.8314 37.4912 24.2225 34.388 25.5783C33.8408 25.7568 33.2803 25.8699 32.7068 25.9179C24.2444 25.9745 15.7821 25.9745 7.3197 25.9179C4.82017 25.6555 3.01281 24.3962 1.89762 22.1402C0.684137 18.8486 1.42669 16.118 4.1253 13.9482C5.02578 13.3664 6.00652 12.9986 7.06751 12.8447C7.61737 9.60114 9.49483 7.67692 12.6997 7.07207C13.6646 6.96078 14.6034 7.05985 15.5159 7.36919C17.132 4.70448 19.4717 3.14814 22.5351 2.70018Z" fill="#192D2B"/>
<path d="M6.64722 28.7617C7.58486 28.619 8.21533 28.9868 8.53864 29.8653C8.59471 30.601 8.59471 31.3367 8.53864 32.0724C8.13993 33.0728 7.42539 33.3982 6.39503 33.0487C6.03452 32.8541 5.79634 32.557 5.68049 32.1573C5.62444 31.365 5.62444 30.5727 5.68049 29.7804C5.8502 29.2838 6.17244 28.9442 6.64722 28.7617Z" fill="#192D2B"/>
<path d="M25.7716 29.9502C25.4917 29.0085 24.8612 28.6123 23.8802 28.7617C23.4054 28.9442 23.0832 29.2838 22.9135 29.7804C22.8574 30.5727 22.8574 31.3651 22.9135 32.1574C22.9945 32.4942 23.1767 32.7631 23.4599 32.9638C24.4 33.4142 25.1425 33.2019 25.6875 32.3271C25.8181 31.54 25.8461 30.7477 25.7716 29.9502Z" fill="#192D2B"/>
<path d="M15.3057 31.648C16.1857 31.5068 16.7881 31.8464 17.113 32.6667C17.1691 33.4873 17.1691 34.3079 17.113 35.1285C16.7264 35.9391 16.0959 36.2362 15.2216 36.0199C14.6734 35.8326 14.3512 35.4506 14.2549 34.8739C14.1804 34.0763 14.2084 33.284 14.339 32.4969C14.5758 32.1012 14.8981 31.8182 15.3057 31.648Z" fill="#192D2B"/>
<path d="M34.3461 32.6667C33.9781 31.8511 33.3476 31.5115 32.4546 31.648C32.2427 31.777 32.0326 31.9185 31.8242 32.0725C31.6677 32.2752 31.5557 32.5015 31.4879 32.7516C31.4318 33.4873 31.4318 34.223 31.4879 34.9588C31.5734 35.4012 31.8116 35.7266 32.2024 35.935C33.2118 36.323 33.9263 36.0259 34.3461 35.0436C34.4021 34.2514 34.4021 33.459 34.3461 32.6667Z" fill="#192D2B"/>
</g>
</svg>
