<svg width="40" height="40" viewBox="0 0 40 40" fill="currentColor" xmlns="http://www.w3.org/2000/svg">
<path d="M6.92055 5.57549C6.16982 5.91957 5.84137 6.26366 5.51292 7.04567C5.3096 7.54616 5.27832 9.20403 5.27832 20.0115C5.27832 31.7104 5.29396 32.4455 5.57549 33.0398C5.91957 33.7905 6.26366 34.119 7.04567 34.4474C7.54616 34.6508 9.20403 34.682 20.0115 34.682C31.7104 34.682 32.4455 34.6664 33.0398 34.3849C33.7905 34.0408 34.119 33.6967 34.4474 32.9147C34.6508 32.4142 34.682 30.7563 34.682 19.9802C34.682 9.20403 34.6508 7.54616 34.4474 7.04567C34.119 6.26366 33.7905 5.91957 33.0398 5.57549C32.4455 5.29396 31.7104 5.27832 19.9802 5.27832C8.24997 5.27832 7.51488 5.29396 6.92055 5.57549ZM32.0232 13.2549H7.93717V7.93717H32.0232V13.2549ZM15.5227 17.7123C16.0545 18.2285 16.0545 19.073 15.5227 19.5892C14.725 20.4025 13.3487 19.8081 13.3487 18.6508C13.3487 17.4934 14.725 16.899 15.5227 17.7123ZM20.8404 17.6654C21.5755 18.3067 21.2783 19.683 20.3712 19.9176C19.4484 20.1522 18.6664 19.4953 18.6977 18.5256C18.7133 17.9 19.3389 17.3213 19.9802 17.3213C20.2304 17.3213 20.6214 17.4777 20.8404 17.6654ZM26.1737 17.6967C27.0809 18.4631 26.4865 19.9802 25.2822 19.9802C24.6097 19.9802 24.0466 19.3702 24.0466 18.6508C24.0466 17.4934 25.2979 16.9303 26.1737 17.6967ZM31.5696 17.7749C32.164 18.3849 32.164 18.9323 31.554 19.5423C31.1317 19.9489 30.9909 20.0115 30.4904 19.9333C29.3956 19.7456 28.9733 18.4944 29.7554 17.7123C30.2871 17.1649 30.9753 17.1962 31.5696 17.7749ZM9.95476 22.8736C11.0965 23.4523 10.6273 25.2979 9.34479 25.2979C8.71918 25.2979 7.93717 24.5628 7.93717 23.9684C7.93717 23.468 8.70354 22.639 9.18839 22.639C9.36043 22.639 9.72016 22.7485 9.95476 22.8736ZM15.6478 23.1239C16.0388 23.6087 15.9919 24.4533 15.5227 24.9069C15.0379 25.4074 14.3497 25.4074 13.7866 24.9225C12.8013 24.0936 13.5364 22.4983 14.8032 22.7016C15.1161 22.7485 15.4914 22.9362 15.6478 23.1239ZM20.8404 23.03C21.4347 23.6087 21.4191 24.4064 20.8248 24.9381C19.5735 26.0799 17.9157 24.2187 19.12 23.03C19.3546 22.7798 19.683 22.639 19.9802 22.639C20.2773 22.639 20.6058 22.7798 20.8404 23.03ZM26.1737 23.0144C27.0809 23.7808 26.4865 25.2979 25.2822 25.2979C24.0154 25.2979 23.5618 23.2646 24.7192 22.7954C25.2979 22.5608 25.7358 22.6234 26.1737 23.0144ZM31.5696 23.0926C31.8355 23.3741 32.0232 23.7182 32.0232 23.9684C32.0232 24.5628 31.2412 25.2979 30.6156 25.2979C29.9587 25.2979 29.3643 24.6879 29.3643 23.9997C29.3643 22.7641 30.6938 22.2167 31.5696 23.0926ZM9.86092 28.1444C10.6899 28.5823 10.8619 29.5833 10.205 30.2246C9.18839 31.2412 7.49924 30.0838 8.12485 28.8013C8.32817 28.3634 8.90686 27.9567 9.31351 27.9567C9.42299 27.9567 9.67324 28.0349 9.86092 28.1444ZM15.2725 28.1913C16.4455 28.7857 15.945 30.6156 14.6156 30.6156C13.2861 30.6156 12.8482 28.7544 14.0369 28.16C14.5374 27.9098 14.7407 27.9098 15.2725 28.1913ZM20.6058 28.1913C21.075 28.4259 21.3252 29.0046 21.247 29.5989C21.2001 30.0525 20.4963 30.6156 19.9802 30.6156C19.464 30.6156 18.7602 30.0525 18.7133 29.5989C18.6351 29.0203 18.8854 28.4416 19.3233 28.207C19.8707 27.9098 20.0427 27.9098 20.6058 28.1913ZM25.8296 28.1131C26.3145 28.3008 26.7524 29.0985 26.6117 29.5677C26.2988 30.6156 25.1571 30.9597 24.4377 30.2246C23.7808 29.5833 23.9372 28.5823 24.7505 28.1444C25.1415 27.9254 25.3292 27.9254 25.8296 28.1131Z" fill="#192D2B"/>
</svg>
