<svg width="40" height="40" viewBox="0 0 40 40" fill="currentColor" xmlns="http://www.w3.org/2000/svg">
<path d="M17.8764 2.78553C15.9682 3.0827 14.2947 3.61447 12.5743 4.45904C10.9477 5.25669 10.6349 5.4913 9.28984 6.83636C7.58505 8.55679 6.75612 9.96442 6.09922 12.1853C5.48925 14.2968 5.34849 16.158 5.41105 21.0065C5.48925 25.9019 5.53617 26.1677 6.59971 27.5597C6.91252 27.982 7.44429 28.4669 7.75709 28.6389C8.17938 28.8422 8.44527 29.1394 8.66423 29.6555C9.79033 32.1736 12.3084 34.8637 14.6545 36.0211C16.7033 37.0221 17.7356 37.2567 20.0816 37.2567C22.4277 37.2567 23.4599 37.0221 25.5088 36.0211C27.8548 34.8637 30.4199 32.1423 31.4677 29.6712C31.7024 29.1394 31.937 28.8735 32.3905 28.6389C33.1256 28.2635 34.064 27.0436 34.4238 26.0113C34.674 25.3232 34.7053 24.6037 34.7053 20.1462C34.6896 14.5783 34.5645 13.5617 33.5948 11.1374C32.281 7.83734 30.0758 5.71026 27.6202 5.36618C26.9946 5.28798 26.6975 5.13157 26.1344 4.5998C25.368 3.86471 24.414 3.34858 23.1628 3.0045C22.1618 2.72297 19.065 2.59785 17.8764 2.78553ZM27.6672 11.763C29.4502 14.2811 30.717 18.3632 30.717 21.6633V22.6487H32.1716L32.0934 23.8843C31.9995 25.4796 31.6085 26.1365 30.4824 26.6369C29.7317 26.981 29.6535 27.0749 29.3407 27.9195C28.5117 30.1716 26.3221 32.6585 24.2732 33.6594C19.1589 36.1775 13.372 33.8002 10.9321 28.1697C10.4472 27.0749 10.3534 26.9654 9.58701 26.5744C8.47655 26.027 8.16374 25.4639 8.0699 23.8843L7.9917 22.6487H9.39932L9.49316 21.6946C9.54008 21.1472 9.74341 20.3965 9.99365 19.9116C10.8382 18.1599 12.1207 17.5343 16.7659 16.6115C20.848 15.7982 21.0982 15.7357 22.5841 15.0162C24.0073 14.3124 25.4462 12.9986 26.1813 11.7161C26.4785 11.2 26.7757 10.7621 26.8382 10.7621C26.9008 10.7621 27.2762 11.2156 27.6672 11.763Z" fill="#192D2B"/>
<path d="M11.2136 20.3652C10.7913 20.7249 10.7757 20.8031 10.7287 22.4766C10.6505 24.6037 10.9164 25.6673 11.761 26.59C13.6535 28.6858 16.9536 28.3105 18.2517 25.8549C18.4707 25.4326 18.6114 24.807 18.6584 23.9781L18.7522 22.7269H21.4111L21.5049 23.9781C21.5518 24.807 21.6926 25.4326 21.9115 25.8549C23.2097 28.3105 26.5098 28.6858 28.4023 26.59C29.2468 25.6673 29.5127 24.6037 29.4345 22.4766C29.3876 20.8031 29.372 20.7249 28.9497 20.3652L28.5117 19.9898H11.6515L11.2136 20.3652ZM16.0152 23.5871C16.0152 24.3848 15.9526 24.6037 15.6242 24.9165C15.1393 25.417 14.4511 25.417 13.8881 24.9478C13.5284 24.635 13.4502 24.416 13.3876 23.6184L13.325 22.6487H16.0152V23.5871ZM26.7757 23.6184C26.7131 24.416 26.6349 24.635 26.2752 24.9478C25.7121 25.417 25.024 25.417 24.5391 24.9165C24.2107 24.6037 24.1481 24.3848 24.1481 23.5871V22.6487H26.8382L26.7757 23.6184Z" fill="#192D2B"/>
</svg>
