<svg width="40" height="40" viewBox="0 0 40 40" fill="currentColor" xmlns="http://www.w3.org/2000/svg">
<path d="M18.8396 11.3479C18.605 10.8787 18.5581 10.3313 18.5581 7.45346V4.10645L20.7164 4.20029C23.2345 4.29413 24.8454 4.70078 27.082 5.79559C31.1016 7.76627 33.995 11.2541 35.4026 15.8367C35.7936 17.1192 35.8249 17.4007 35.8249 20.1064C35.8249 22.8122 35.7936 23.0937 35.4026 24.3762C34.4955 27.301 33.2912 29.3342 31.2423 31.3831C29.1934 33.432 27.1602 34.6363 24.2355 35.5434C22.953 35.9344 22.6715 35.9657 19.9657 35.9657C17.2599 35.9657 16.9784 35.9344 15.6959 35.5434C12.7712 34.6363 10.7379 33.432 8.68905 31.3831C6.64017 29.3342 5.42023 27.301 4.52873 24.3762C4.13773 23.0937 4.10645 22.7966 4.10645 20.1064C4.10645 17.385 4.13773 17.1192 4.52873 15.8054C5.0605 14.0537 6.13968 11.8797 7.06246 10.6441C8.11036 9.2521 8.78289 9.00185 9.58054 9.69002C10.2374 10.2531 10.1749 10.9412 9.37722 12.0048C8.42316 13.256 7.84447 14.3821 7.26578 16.04C6.76529 17.4945 6.74965 17.5884 6.76529 20.1064C6.76529 22.5933 6.78093 22.7497 7.26578 24.1729C8.67341 28.3802 11.8015 31.4769 16.0556 32.8689C17.2912 33.2756 17.5571 33.3068 19.9657 33.3068C22.4525 33.3068 22.5933 33.2912 24.0322 32.8064C26.1749 32.1025 27.7702 31.1016 29.3655 29.5063C30.9608 27.9109 31.9618 26.3 32.6656 24.1729C33.1348 22.7653 33.1661 22.562 33.1661 20.2628C33.1817 17.5414 33.0097 16.603 32.1025 14.6793C31.0703 12.5209 29.475 10.6284 27.5825 9.3303C25.9872 8.25112 23.0468 7.12502 21.7956 7.12502H21.3733V8.95493C21.3733 10.3938 21.3107 10.9256 21.0918 11.3479C20.5757 12.3801 19.3557 12.3801 18.8396 11.3479Z" fill="#192D2B"/>
<path d="M11.9892 12.7243C11.9892 12.5991 12.0674 12.4271 12.1768 12.3176C12.2863 12.2081 12.4584 12.1299 12.5679 12.1299C12.8025 12.1299 18.3078 15.6646 20.5757 17.2599C22.1084 18.3391 22.6246 19.0742 22.6246 20.1378C22.6246 20.998 22.0146 21.9833 21.2169 22.4056C19.7624 23.172 18.5581 22.734 17.2599 20.9198C15.8054 18.8865 11.9892 12.9589 11.9892 12.7243Z" fill="#192D2B"/>
</svg>
