<svg width="40" height="40" viewBox="0 0 40 40" fill="currentColor" xmlns="http://www.w3.org/2000/svg">
<g opacity="0.976">
<path fill-rule="evenodd" clip-rule="evenodd" d="M38.6663 19.6567C38.6663 19.9394 38.6663 20.222 38.6663 20.5047C36.1573 24.9026 32.5844 28.2354 27.9476 30.5031C20.3879 33.4627 13.4608 32.4499 7.16634 27.4647C4.81153 25.4497 2.86709 23.1297 1.33301 20.5047C1.33301 20.222 1.33301 19.9394 1.33301 19.6567C4.18566 15.3024 7.97733 11.9461 12.708 9.58767C18.6027 7.10874 24.266 7.5327 29.6976 10.8595C33.3153 13.1995 36.3049 16.1319 38.6663 19.6567ZM19.2705 11.6721C22.9531 11.5541 25.7361 13.0143 27.6195 16.0531C29.2614 19.3388 28.9697 22.4478 26.7445 25.3802C24.2912 28.0411 21.2651 28.9715 17.6663 28.1713C13.968 26.9899 11.8655 24.5286 11.359 20.7873C11.2018 17.2169 12.6966 14.52 15.8434 12.6967C16.9335 12.1598 18.0759 11.8183 19.2705 11.6721Z" fill="#192D2B"/>
<path fill-rule="evenodd" clip-rule="evenodd" d="M19.7841 16.4071C22.2263 16.486 23.5763 17.7265 23.8341 20.1287C23.6171 22.3951 22.3636 23.6357 20.0734 23.8504C17.7832 23.6357 16.5297 22.3951 16.3127 20.1287C16.5 17.9876 17.6572 16.747 19.7841 16.4071Z" fill="#192D2B"/>
</g>
</svg>
