<svg width="60" height="60" viewBox="0 0 60 60" fill="currentColor" xmlns="http://www.w3.org/2000/svg">
<path d="M3.1703 4.24736C2.17095 4.57328 0.874494 5.76829 0.415333 6.88182C-0.124857 8.15831 -0.151867 50.8257 0.415333 52.1293C0.955522 53.4601 2.52207 54.7095 3.87255 54.8996C4.52077 54.9811 16.7291 55.0354 31.0171 54.9811L56.9732 54.8996L58.0266 54.0576C60.1333 52.3738 59.9982 54.0033 59.9982 29.5871C59.9982 14.8938 59.9172 7.56081 59.7011 7.04478C59.296 5.90409 57.8645 4.54612 56.7571 4.24736C55.5687 3.92145 4.27769 3.92145 3.1703 4.24736ZM11.6513 12.1236V15.6543H8.14005H4.62881V12.1236V8.59286H8.14005H11.6513V12.1236ZM55.4066 12.1236V15.6543H51.8954H48.3842V12.1236V8.59286H51.8954H55.4066V12.1236ZM11.6513 23.6663V27.0612H8.14005H4.62881V23.6663V20.2714H8.14005H11.6513V23.6663ZM55.4066 23.6663V27.0612H51.8954H48.3842V23.6663V20.2714H51.8954H55.4066V23.6663ZM45.7913 29.9401C46.3855 30.5105 46.3315 31.0265 45.6292 31.5154C45.089 31.8956 43.1713 31.9499 30.0177 31.9499C16.8641 31.9499 14.9464 31.8956 14.4062 31.5154C13.704 31.0265 13.65 30.5105 14.2442 29.9401C14.6223 29.5599 16.4049 29.5056 30.0177 29.5056C43.6305 29.5056 45.4131 29.5599 45.7913 29.9401ZM11.6513 35.3448V38.7398H8.14005H4.62881V35.3448V31.9499H8.14005H11.6513V35.3448ZM55.4066 35.3448V38.7398H51.8954H48.3842V35.3448V31.9499H51.8954H55.4066V35.3448ZM11.6513 46.8876V50.4183H8.14005H4.62881V46.8876V43.3569H8.14005H11.6513V46.8876ZM55.4066 46.8876V50.4183H51.8954H48.3842V46.8876V43.3569H51.8954H55.4066V46.8876Z" fill="currentColor"/>
</svg>
