<svg width="40" height="40" viewBox="0 0 40 40" fill="currentColor" xmlns="http://www.w3.org/2000/svg">
<path opacity="0.965" fill-rule="evenodd" clip-rule="evenodd" d="M26.3389 1.3383C28.5684 1.32419 30.7978 1.3383 33.0269 1.38063C33.5207 1.53583 33.8453 1.86036 34.0005 2.3542C34.0146 3.46888 34.0287 4.58354 34.0428 5.69822C34.0547 6.90308 34.0124 8.10244 33.9158 9.29621C33.4887 9.96578 32.882 10.2056 32.0957 10.0158C31.5436 9.82905 31.2191 9.44809 31.1221 8.87292C31.0939 8.0828 31.0656 7.29259 31.0374 6.50247C28.9633 8.57661 26.8892 10.6507 24.815 12.7249C26.0225 16.3888 25.2606 19.5777 22.5292 22.2913C21.2922 23.3895 19.853 24.0808 18.2116 24.3654C18.2116 25.3532 18.2116 26.3408 18.2116 27.3285C19.5064 27.6036 19.9156 28.3655 19.4392 29.6143C19.1442 30.051 18.735 30.2767 18.2116 30.2916C18.1975 31.3643 18.2116 32.4366 18.254 33.5086C18.8382 32.8675 19.4731 32.2891 20.1588 31.7731C21.5981 31.4687 22.2895 32.0473 22.2329 33.5086C22.1574 33.8008 22.0164 34.0548 21.8096 34.2705C20.4692 35.6109 19.1287 36.9514 17.7883 38.2918C17.1739 38.7264 16.5248 38.7827 15.8412 38.4611C14.3315 36.9514 12.8217 35.4416 11.312 33.9319C10.8325 32.6609 11.2558 31.899 12.5818 31.6461C12.978 31.6558 13.3308 31.7828 13.6401 32.0271C14.1339 32.5209 14.6278 33.0148 15.1216 33.5086C15.1639 32.4366 15.1781 31.3643 15.1639 30.2916C13.8692 30.0165 13.46 29.2546 13.9364 28.0058C14.2314 27.5691 14.6406 27.3433 15.1639 27.3285C15.1639 26.3408 15.1639 25.3532 15.1639 24.3654C11.0016 23.4058 8.61702 20.8097 8.01027 16.5769C7.85551 12.7229 9.44989 9.85851 12.7935 7.984C16.6786 6.33984 20.1215 6.98892 23.1218 9.93115C23.1783 9.98762 23.2347 9.98762 23.2912 9.93115C25.1537 8.06866 27.0161 6.20617 28.8786 4.34368C28.0885 4.31546 27.2983 4.28724 26.5082 4.25902C25.5572 3.98136 25.1763 3.34642 25.3653 2.3542C25.5362 1.85893 25.8607 1.5203 26.3389 1.3383ZM16.0952 10.0581C19.0505 9.97568 21.0682 11.3019 22.1483 14.0371C22.8529 16.891 21.9922 19.1345 19.5662 20.7675C17.6472 21.7269 15.7283 21.7269 13.8094 20.7675C11.3833 19.1343 10.5227 16.8909 11.2273 14.0371C12.0819 11.7561 13.7046 10.4299 16.0952 10.0581Z" fill="#192D2B"/>
</svg>
