<svg width="40" height="40" viewBox="0 0 40 40" fill="currentColor" xmlns="http://www.w3.org/2000/svg">
<path opacity="0.991" fill-rule="evenodd" clip-rule="evenodd" d="M16.1311 5.37404C18.0449 5.23356 19.9141 5.45383 21.7388 6.03485C23.1137 6.55249 24.243 7.3947 25.1268 8.56147C27.7348 7.58103 30.1622 7.90496 32.409 9.53325C33.5764 10.5287 34.2903 11.7856 34.5508 13.3038C34.5527 18.5146 34.6046 23.7233 34.7066 28.93C35.0531 30.1599 35.8709 30.7818 37.1599 30.7958C37.6577 30.7397 38.151 30.6619 38.6397 30.5626C38.8618 33.2041 37.6935 34.8756 35.1349 35.577C33.1257 36.0664 31.1268 36.0405 29.1378 35.4992C27.0824 34.5599 25.8752 32.9662 25.5162 30.7181C25.4019 30.1529 25.324 29.5829 25.2825 29.0077C25.2693 25.8277 25.2303 22.6532 25.1657 19.4843C24.0477 19.0432 23.1131 18.3565 22.3619 17.4241C20.9642 19.0944 19.1989 20.1958 17.0657 20.7282C16.2734 20.946 15.4685 21.0885 14.6513 21.1557C14.6643 23.7214 14.6513 26.2869 14.6123 28.8522C13.8198 34.7753 10.5356 36.965 4.75993 35.4215C2.73528 34.5919 1.59297 33.0889 1.33301 30.9124C1.35897 30.7958 1.38493 30.6792 1.41089 30.5626C2.33669 30.9037 3.24535 30.8648 4.13685 30.446C4.70801 30.097 5.05849 29.5917 5.1883 28.93C5.28981 24.7081 5.34173 20.4841 5.34407 16.258C5.75571 13.0387 7.19657 10.3825 9.66666 8.28938C11.5552 6.72483 13.71 5.75305 16.1311 5.37404Z" fill="#192D2B"/>
</svg>
