<svg width="60" height="60" viewBox="0 0 60 60" fill="currentColor" xmlns="http://www.w3.org/2000/svg">
<path d="M17.1908 13.8444C10.5612 19.2502 4.87493 23.9674 4.56894 24.2989C3.85497 25.0894 3.80398 26.4153 4.46695 27.2313C4.84943 27.7158 5.23191 27.8433 6.63434 27.9198L8.31726 28.0218V40.5672C8.31726 53.0616 8.31726 53.0871 8.90373 54.0815C9.26072 54.719 9.89819 55.3055 10.5867 55.6879L11.7086 56.2744H29.9912H48.2739L49.3958 55.6879C50.0843 55.3055 50.7217 54.719 51.0787 54.0815C51.6652 53.0871 51.6652 53.0616 51.6652 40.5672V28.0218L53.3481 27.9198C55.337 27.7923 56 27.2313 56 25.7269C56 24.6814 55.694 24.3499 50.6708 20.3211L47.3559 17.6437L47.3304 12.595C47.3304 7.57172 47.3304 7.54623 46.6929 6.93425C46.132 6.37328 45.8515 6.29678 44.0411 6.29678C42.1542 6.29678 41.9757 6.34778 41.4912 6.95975C41.0322 7.54623 40.9557 8.0052 40.9557 9.89211C40.9557 11.1416 40.9047 12.1615 40.8282 12.1615C40.7772 12.1615 38.4568 10.3256 35.7285 8.0817C31.8271 4.89435 30.5777 4.00189 29.9912 4.00189C29.4048 4.00189 26.8804 5.9398 17.1908 13.8444ZM36.5699 43.1935L36.4934 51.8121H29.9912H23.489L23.4125 43.1935L23.3615 34.6004H29.9912H36.6209L36.5699 43.1935Z" fill="currentColor"/>
</svg>
