<svg width="40" height="40" viewBox="0 0 40 40" fill="currentColor" xmlns="http://www.w3.org/2000/svg">
<path opacity="0.988" fill-rule="evenodd" clip-rule="evenodd" d="M26.4409 1.37724C27.4021 1.23263 28.2699 1.4426 29.0446 2.00717C32.0263 4.98885 35.0079 7.97053 37.9896 10.9522C38.7932 12.1648 38.8213 13.3966 38.0736 14.6478C30.2484 22.473 22.4233 30.2981 14.5981 38.1233C13.3489 38.8743 12.117 38.8464 10.9025 38.0393C7.92086 35.0576 4.93918 32.0759 1.9575 29.0943C1.15385 27.8817 1.12586 26.6499 1.87351 25.3987C2.57696 24.6671 3.30487 23.9672 4.05727 23.2989C4.85168 24.0092 5.6216 24.7511 6.36703 25.5246C7.33175 25.8893 8.0177 25.5954 8.4248 24.6427C8.49846 24.2191 8.41447 23.8271 8.17283 23.4669C7.47293 22.767 6.77298 22.067 6.07306 21.3671C6.01706 21.3111 6.01706 21.2551 6.07306 21.1991C6.82898 20.4432 7.58489 19.6873 8.34081 18.9314C8.66939 19.3163 9.04735 19.6383 9.47469 19.8972C10.2152 20.0948 10.7891 19.8568 11.1965 19.1833C11.3769 18.7227 11.3489 18.2748 11.1125 17.8395C10.8312 17.5722 10.5652 17.2923 10.3146 16.9996C11.0693 16.2028 11.8392 15.4189 12.6244 14.6478C13.3967 15.4482 14.1946 16.2182 15.0181 16.9576C15.9189 17.2839 16.5768 17.018 16.9919 16.1597C17.0583 15.7879 17.0303 15.424 16.9079 15.0678C16.1685 14.2443 15.3986 13.4464 14.5981 12.674C15.3693 11.8889 16.1531 11.119 16.9499 10.3643C17.2734 10.6739 17.6094 10.9678 17.9578 11.2462C18.8246 11.5359 19.4545 11.27 19.8476 10.4483C19.9373 10.0058 19.8813 9.58585 19.6796 9.1884C19.4136 8.9224 19.1477 8.65649 18.8817 8.39049C19.6528 7.60534 20.4367 6.83545 21.2334 6.08074C21.9741 6.77945 22.7021 7.49338 23.4172 8.22251C24.4923 8.76937 25.2343 8.4754 25.643 7.3406C25.6814 7.08376 25.6534 6.83182 25.559 6.58468C25.4189 6.38871 25.279 6.19272 25.139 5.99675C24.5035 5.36124 23.8736 4.7313 23.2492 4.10695C23.9175 3.35455 24.6174 2.62663 25.349 1.92318C25.6973 1.69304 26.0612 1.51107 26.4409 1.37724Z" fill="#192D2B"/>
</svg>
