<svg width="60" height="60" viewBox="0 0 60 60" fill="none" xmlns="http://www.w3.org/2000/svg">
<path fill-rule="evenodd" clip-rule="evenodd" d="M0.405893 8.08479C0.622107 7.67891 0.946428 7.27303 1.13561 7.19185C1.97344 6.84009 3.32478 7.11068 11.8382 9.22127L20.8111 11.4671L29.811 9.22127C34.7298 8.00362 39.0541 7.00244 39.4054 7.00244C40 7.00244 56.4863 11.0613 58.3242 11.6295C58.3794 11.6476 58.4328 11.6645 58.4845 11.6808C58.6932 11.7466 58.8732 11.8034 59.0284 11.9001C60.0014 12.5058 60.0012 14.6783 59.9999 30.4674C59.9999 31.0596 59.9998 31.6712 59.9998 32.3024C59.9998 52.2448 59.9998 52.353 58.7836 52.8401C57.9188 53.1648 57.0809 53.0024 48.1891 50.7836L39.1892 48.5377L30.2164 50.7836C25.2705 52.0013 20.9462 53.0024 20.6219 53.0024C20.1084 53.0024 5.62205 49.4307 1.83831 48.4024C1.76202 48.3809 1.68889 48.3617 1.61879 48.3432C1.37612 48.2794 1.16976 48.225 0.994296 48.1193C-0.00260408 47.5187 -0.00223566 45.2589 0.000230594 30.1601V30.1576C0.000358565 29.3743 0.000492336 28.5564 0.000492336 27.7024C0.000492336 11.6024 0.0545461 8.76127 0.405893 8.08479ZM39.1892 20.8024H32.4326V19.7201C32.4326 19.1248 32.2974 18.6377 32.1623 18.6377C32.0001 18.6377 30.9191 19.1248 29.7299 19.7201L27.5677 20.8024V25.2671L29.9461 26.4848L32.2974 27.7024L32.4596 32.4377H36.973L39.2433 39.2024H41.5676L43.8378 30.0024H48.3783V28.8389C48.3783 27.8377 48.2162 27.5401 47.2973 26.6201C46.3243 25.673 46.2162 25.4295 46.2162 24.266V22.9671H50.8107V18.3671H39.1892V20.8024ZM9.18956 29.8943V18.3672H13.676L16.0543 20.8025H22.9732V25.4025L20.8111 26.4849C19.2435 27.2696 18.3246 27.5672 17.4327 27.5672H16.2165V32.4378H18.5678C19.9947 32.4378 20.5557 32.4378 21.0057 32.6615C21.2973 32.8065 21.5424 33.0453 21.9462 33.439L22.9732 34.4402V39.3378L18.5138 43.8025H13.7841V36.7672L12.5949 34.386C11.9193 33.0602 10.9193 31.5719 10.2977 30.9496L9.18956 29.8943ZM46.2162 39.2024V32.4377H50.8107L51.8918 34.6024C52.4864 35.793 52.9729 36.8213 52.9729 36.9024C52.9729 36.9566 51.9999 37.5248 50.8107 38.1201C49.2432 38.9048 48.3243 39.2024 47.4324 39.2024H46.2162Z" fill="#192D2B"/>
</svg>
