<svg width="60" height="60" viewBox="0 0 60 60" fill="none" xmlns="http://www.w3.org/2000/svg">
<path d="M30.0001 16.002C34.4183 16.002 38 12.4199 38 8.00195C38 3.58398 34.4183 0.00195312 30.0001 0.00195312C25.5818 0.00195312 22.0001 3.58398 22.0001 8.00195C22.0001 12.4199 25.5818 16.002 30.0001 16.002Z" fill="#192D2B"/>
<path d="M27.971 18.1514C26.9256 18.3555 25.419 18.8799 24.5582 19.2578C22.5599 20.249 20.0694 22.8418 19.3008 24.793C18.9319 25.6963 18.3169 29.1045 17.7327 33.416C16.8719 39.8828 16.8411 40.582 17.2715 41.3691C18.0709 42.8545 20.1001 43.1162 21.3914 41.8936C21.9747 41.3408 21.9756 41.4268 22.0674 49.8633L22.16 58.4395L22.898 59.1973C24.1893 60.5078 26.5259 60.1582 27.2022 58.585C27.3868 58.1484 27.8172 53.9824 28.1246 49.3799C28.4935 44.1943 28.8626 40.8154 29.1084 40.5527C29.5696 40.0283 30.4305 40.0283 30.8917 40.5527C31.199 40.9023 32.429 54.623 32.4598 57.8564C32.4598 59.7793 35.6265 60.6826 37.1021 59.1973L37.8401 58.4395L37.9327 49.8633C38.0245 41.4268 38.0254 41.3408 38.6087 41.8936C39.9 43.1162 41.9292 42.8545 42.7286 41.3691C43.159 40.582 43.1282 39.8828 42.2674 33.416C41.6832 29.1045 41.0682 25.6963 40.6993 24.793C39.9615 22.8701 37.471 20.249 35.565 19.3164C32.8594 18.0352 30.4612 17.6562 27.971 18.1514Z" fill="#192D2B"/>
</svg>
