<svg width="40" height="40" viewBox="0 0 40 40" fill="currentColor" xmlns="http://www.w3.org/2000/svg">
<path d="M20.2461 9.67032C15.1782 10.0121 10.9426 10.3094 10.8385 10.3094C10.7345 10.3242 10.4819 10.4877 10.2887 10.6958C9.73877 11.2308 9.78335 11.9739 10.3778 12.4643C10.8237 12.8359 10.898 12.8508 12.9043 12.8508H14.985L14.8958 16.8932L12.9638 17.3836C11.8937 17.6511 10.2292 18.1416 9.24832 18.4834C8.2823 18.8104 7.43518 19.0927 7.37573 19.0927C7.31628 19.0927 6.54347 18.1118 5.6369 16.8932C4.71546 15.6745 3.77917 14.5896 3.51165 14.4261C3.08066 14.1735 1 13.8762 1 14.0694C1 14.114 1.23779 15.7637 1.52016 17.7403C2.07005 21.5747 2.23353 22.08 3.11038 22.8974C3.74944 23.5067 4.1953 23.7296 5.97872 24.2795C12.4585 26.271 18.3289 27.029 24.6303 26.6723C28.9849 26.4345 32.7746 25.8995 34.6324 25.2455L35.1822 25.0523V26.6128C35.1822 28.3665 35.3754 28.961 36.0294 29.2136C36.2523 29.288 36.609 29.3177 36.8468 29.2731C37.6196 29.0948 37.7088 28.7678 37.7088 26.2561V23.9674L38.3032 23.2986C39.2841 22.184 39.2247 21.0545 38.1546 20.2668L37.7088 19.925V17.3539C37.7088 14.9909 37.679 14.7531 37.4115 14.4856C36.7427 13.8168 35.747 13.9951 35.4052 14.8571C35.2566 15.1989 35.1822 15.9123 35.1822 17.0715V18.7658L34.0379 18.4091C32.9232 18.0524 28.5984 17.1458 27.1271 16.9378L26.4138 16.8486V12.8656L28.5687 12.821C31.2587 12.7616 31.3628 12.7021 31.4371 10.993C31.4965 9.92297 31.4816 9.87839 31.0507 9.43253C30.694 9.07585 30.471 8.98668 30.0252 9.00154C29.7131 9.0164 25.314 9.31364 20.2461 9.67032ZM23.8575 15.5853C23.8129 18.2456 23.7981 18.3348 23.4562 18.7063C23.0996 19.0927 23.0847 19.0927 20.6622 19.0927C17.3183 19.0927 17.4966 19.2859 17.4966 15.6002V12.8508H23.9021L23.8575 15.5853Z" fill="#192D2B"/>
<path d="M26.1314 28.2774C25.5666 28.5746 25.0762 29.3623 25.0762 29.9419C25.0762 30.8633 26.0868 31.8739 27.0082 31.8739C27.4987 31.8739 28.2566 31.3984 28.5984 30.893C29.1483 30.0459 28.8214 28.8867 27.8554 28.3071C27.2609 27.9355 26.7704 27.9355 26.1314 28.2774Z" fill="#192D2B"/>
</svg>
