<svg width="40" height="40" viewBox="0 0 40 40" fill="currentColor" xmlns="http://www.w3.org/2000/svg">
<path d="M19.7854 4.19663C18.3308 4.66584 17.0639 5.80758 16.4071 7.23085C16.0786 7.9503 16.0004 8.38823 16.0004 9.26408C15.9848 11.4537 17.0483 13.1429 18.9721 14.0969C19.8948 14.5505 20.1607 14.6131 21.2712 14.6131C22.2878 14.5974 22.6944 14.5192 23.3983 14.1908C26.8235 12.6111 27.6681 8.34131 25.103 5.65118C24.0864 4.60328 23.0855 4.16535 21.5058 4.11843C20.7707 4.08715 20.0043 4.11843 19.7854 4.19663Z" fill="#192D2B"/>
<path d="M6.24088 7.09008C3.33179 8.45078 3.17539 12.5798 5.99063 14.1126C7.6485 15.0197 9.40021 14.7695 10.714 13.44C12.0434 12.1262 12.278 10.3745 11.3865 8.70103C10.4012 6.9024 8.16463 6.19858 6.24088 7.09008Z" fill="#192D2B"/>
<path d="M4.22328 17.5691C3.64459 17.835 2.97206 18.5388 2.7531 19.1175C2.64362 19.4146 2.58105 22.0265 2.58105 26.703C2.58105 33.3345 2.61234 33.8975 2.87822 34.4918C3.03462 34.8516 3.40999 35.3051 3.69151 35.5085L4.22328 35.8838L14.452 35.9307C24.6182 35.962 24.6808 35.962 25.2438 35.6336C25.8538 35.2739 26.1822 34.8828 26.4638 34.1634C26.6984 33.5534 26.7453 20.1966 26.5107 19.3521C26.2917 18.6013 25.6505 17.835 24.9936 17.5691C24.2585 17.2563 4.9271 17.2563 4.22328 17.5691Z" fill="#192D2B"/>
<path d="M35.6759 18.7264C35.5038 18.7577 34.0336 19.6492 32.3914 20.6971L29.4041 22.6052L29.3572 26.6717L29.3259 30.7225L31.1558 31.8799C32.1725 32.5212 33.5957 33.4283 34.3152 33.8819C35.0346 34.3354 35.801 34.7108 36.0043 34.7108C36.2233 34.7108 36.5986 34.5075 36.8489 34.2572L37.3025 33.8037V26.703C37.3025 18.9611 37.3181 19.1018 36.411 18.8046C36.1607 18.7264 35.8323 18.6952 35.6759 18.7264Z" fill="#192D2B"/>
</svg>
