<svg width="40" height="40" viewBox="0 0 40 40" fill="currentColor" xmlns="http://www.w3.org/2000/svg">
<path d="M19.1968 6.30869C19.6191 4.83851 20.3699 3.18064 20.714 2.9304C21.2457 2.55503 21.887 2.63323 22.4031 3.14936C22.6533 3.3996 22.8567 3.74369 22.8567 3.90009C22.8567 4.0565 22.6533 4.74467 22.3875 5.40156C21.7618 7.01251 21.7775 7.07507 22.5126 6.90303C22.841 6.84046 23.5918 6.74662 24.1861 6.73098C25.4842 6.66842 25.6094 6.8561 24.9681 7.84144C24.7867 8.13542 24.6629 8.29932 24.6986 8.41318C24.7522 8.58402 25.165 8.64219 26.2819 8.85806C27.6426 9.1083 28.018 9.29599 28.018 9.68699C28.018 10.078 26.9231 10.9851 25.844 11.5013C24.9212 11.9392 24.7804 11.9705 23.4979 11.8923L22.1529 11.7984L21.3552 13.1591C20.6045 14.4104 20.5263 14.5042 20.0414 14.5042C19.5566 14.5042 19.4784 14.4104 18.6651 13.0809L17.8205 11.642L17.2575 11.7984C15.8185 12.1894 14.1763 11.7515 12.7218 10.5628C12.19 10.1249 12.0649 9.9216 12.0962 9.59315C12.1431 9.20215 12.2213 9.17087 13.7071 8.8737C14.5673 8.7173 15.3024 8.54525 15.3493 8.52961C15.3806 8.49833 15.2555 8.16989 15.0365 7.79452C14.4735 6.74662 14.6455 6.5433 15.9906 6.68406C16.6006 6.74662 17.5077 6.88738 18.0082 6.98123L18.9466 7.18455L19.1968 6.30869Z" fill="#192D2B"/>
<path d="M4.30735 21.1513C4.99552 17.8199 6.76287 14.8796 9.20275 13.034C9.78144 12.5961 10.3132 12.2364 10.3758 12.2364C10.4383 12.2364 10.9857 12.5961 11.5801 13.034C12.8469 13.9568 14.4579 14.5668 15.5996 14.5824C15.9558 14.5824 16.1529 14.5824 16.3135 14.659C16.5127 14.7539 16.6557 14.9665 16.976 15.4426C17.2888 15.9118 17.8362 16.4905 18.1959 16.7251C18.759 17.1005 18.9936 17.163 20.0415 17.163C21.0894 17.163 21.324 17.1005 21.887 16.7251C22.2467 16.4905 22.7942 15.9275 23.107 15.4583L23.6544 14.6293L24.7335 14.5511C25.9848 14.4573 27.6739 13.7222 28.7687 12.815C29.1441 12.4866 29.5351 12.2364 29.629 12.2364C29.9887 12.2364 31.9281 13.8317 32.7101 14.7701C34.2898 16.6626 35.2751 18.7114 35.7756 21.1513C35.9789 22.1523 36.0102 22.9499 35.9476 24.5765C35.8538 27.079 35.541 28.3771 34.4931 30.4573C33.2106 33.0379 31.3025 34.9773 28.8939 36.1503C26.4383 37.339 24.3738 37.5423 21.6211 36.8854L20.0415 36.4944L18.4618 36.8854C15.7091 37.5423 13.6446 37.339 11.1891 36.1503C8.78047 34.9773 6.87235 33.0379 5.58985 30.4573C4.54195 28.3771 4.22915 27.079 4.13531 24.5765C4.07274 22.9499 4.10402 22.1523 4.30735 21.1513Z" fill="#192D2B"/>
</svg>
