<svg width="60" height="60" viewBox="0 0 60 60" fill="currentColor" xmlns="http://www.w3.org/2000/svg">
<path fill-rule="evenodd" clip-rule="evenodd" d="M45.3938 25.2215C45.3938 36.3638 36.3611 45.3963 25.2188 45.3963C14.0764 45.3963 5.04375 36.3638 5.04375 25.2215C5.04375 14.0792 14.0764 5.04664 25.2188 5.04664C36.3611 5.04664 45.3938 14.0792 45.3938 25.2215ZM41.1782 44.7488C36.8309 48.3059 31.2741 50.4401 25.2188 50.4401C11.2908 50.4401 0 39.1493 0 25.2215C0 11.2937 11.2908 0.00292969 25.2188 0.00292969C39.1467 0.00292969 50.4375 11.2937 50.4375 25.2215C50.4375 31.2776 48.3028 36.835 44.7448 41.1825L59.3405 55.7781C60.2625 56.7001 60.2115 58.2459 59.2267 59.2307C58.2418 60.2156 56.696 60.2666 55.7741 59.3446L41.1782 44.7488Z" fill="currentColor"/>
</svg>
