<svg width="60" height="60" viewBox="0 0 60 60" fill="currentColor" xmlns="http://www.w3.org/2000/svg">
<path d="M42.4767 0.975204C40.5713 2.97559 37.223 8.49018 33.6843 15.4104C31.9966 18.6543 29.8189 21.0872 27.5595 22.1955C26.1985 22.8443 26.1168 22.8443 17.161 22.9254C7.19809 23.0065 6.89865 22.9795 6.0548 21.3575C4.80262 18.9246 6.43589 16.2214 9.15801 16.2214C10.4102 16.2214 11.8801 17.3027 12.4246 18.6273C12.7784 19.4112 13.7039 20.0059 14.6567 20.0059C15.4189 20.0059 16.8072 18.5732 16.8072 17.7893C16.7799 15.8159 14.1395 12.8424 11.6624 12.0314C9.7841 11.4097 7.06198 11.5719 5.45593 12.4099C0.882771 14.7076 -0.396624 20.3573 2.67937 24.6284L3.25101 25.4394L2.54326 26.4396C2.16217 26.9802 1.67219 27.8993 1.4272 28.44C0.85555 29.8457 0.909993 33.0084 1.5633 35.4413C2.24383 38.0094 2.24383 40.4693 1.5633 43.3888C1.10054 45.3622 1.01888 46.6597 1.01888 52.1473C1.01888 59.7704 1.01888 59.7433 3.55045 59.9596C4.96595 60.0677 5.12928 60.0137 5.91869 59.2568C6.35423 58.7972 6.73533 58.1755 6.73533 57.8781C6.73533 57.2023 6.1909 55.9588 5.86425 55.9588C5.75536 55.9588 5.64648 55.256 5.64648 54.391C5.64648 52.9853 5.75536 52.715 6.49033 51.958C6.95309 51.4715 8.28693 50.4442 9.45744 49.6333C10.628 48.8223 12.3429 47.2815 13.2956 46.2002C15.6639 43.551 16.2627 43.0104 16.9705 42.8211C17.3244 42.74 18.7943 42.8752 20.2643 43.1185C21.7886 43.3888 25.0007 43.6591 27.7229 43.7402L32.5138 43.8484L34.2559 51.3093C35.2087 55.4182 36.1886 59.0135 36.4336 59.2838C36.7331 59.6622 37.3047 59.8515 38.3936 59.9596C39.8091 60.0677 39.9724 60.0137 40.7618 59.2568C41.7145 58.3106 41.7962 57.5267 41.0612 56.3102C40.544 55.4722 40.544 55.3101 40.9524 49.0656L41.3607 42.659L43.2662 40.8748C46.2333 38.0905 46.8866 36.4145 47.9754 28.9536C49.0098 22.0063 49.6631 20.871 53.3652 19.8437C54.6718 19.4653 55.1618 19.1409 56.3323 17.8704C57.6662 16.4106 59 14.1129 59 13.2479C59 12.6261 58.2106 11.6259 57.7206 11.6259C57.4756 11.6259 56.0873 11.1934 54.6174 10.6528C52.3036 9.78772 51.9225 9.54443 51.6231 8.84159C50.8064 6.89528 48.8193 5.35443 46.5327 4.84082L45.1172 4.54346V2.70527C45.1172 -0.133118 44.1372 -0.781891 42.4767 0.975204Z" fill="currentColor"/>
</svg>
