<svg width="40" height="40" viewBox="0 0 40 40" fill="currentColor" xmlns="http://www.w3.org/2000/svg">
<path opacity="0.99" fill-rule="evenodd" clip-rule="evenodd" d="M19.9652 1.34792C20.4186 1.30004 20.8502 1.36746 21.2596 1.55018C21.5985 1.89167 21.9086 2.25573 22.19 2.64236C25.5448 7.40795 28.4034 12.4778 30.7656 17.852C31.5479 19.7134 32.1682 21.6281 32.6264 23.596C33.5482 29.1407 31.7279 33.5228 27.1655 36.7427C23.6233 38.8475 19.9018 39.2251 16.001 37.8753C11.9528 36.1729 9.37743 33.1931 8.27481 28.9356C7.78689 26.4672 7.94869 24.0401 8.76022 21.6544C10.0208 17.9199 11.6119 14.3332 13.5335 10.8944C15.2295 7.79806 17.1173 4.83165 19.1966 1.99514C19.4209 1.72951 19.6771 1.51376 19.9652 1.34792ZM11.7941 24.8905C12.4884 24.7842 13.0142 25.0269 13.3717 25.6186C13.4778 29.2011 15.1902 31.6416 18.5089 32.9402C19.1805 33.6944 19.1536 34.4225 18.428 35.1246C18.0726 35.3167 17.6951 35.3706 17.2954 35.2864C13.9729 33.9861 11.883 31.5995 11.0255 28.1266C10.8284 27.3192 10.8014 26.5102 10.9446 25.6995C11.115 25.2996 11.3981 25.0299 11.7941 24.8905Z" fill="#192D2B"/>
</svg>
