<svg width="40" height="40" viewBox="0 0 40 40" fill="currentColor" xmlns="http://www.w3.org/2000/svg">
<path opacity="0.987" fill-rule="evenodd" clip-rule="evenodd" d="M19.4568 4.02985C20.1149 3.91966 20.6578 4.11455 21.0854 4.61449C22.7344 8.32961 24.4048 12.0324 26.0966 15.7226C27.0849 14.7343 28.0733 13.746 29.0616 12.7577C29.8633 12.3909 30.5453 12.544 31.1078 13.217C32.0336 14.6512 32.9802 16.0711 33.9475 17.4765C35.5723 22.9733 37.1452 28.4856 38.6663 34.0134C38.5971 34.7086 38.2351 35.1679 37.5806 35.3915C25.8321 35.4472 14.0837 35.4472 2.33524 35.3915C1.6714 35.1491 1.33732 34.6759 1.33301 33.9717C1.33327 33.6368 1.40286 33.3166 1.54181 33.0112C3.43492 27.833 5.32803 22.6548 7.22115 17.4765C7.70281 16.9003 8.30131 16.7194 9.01683 16.9337C9.88493 17.4676 10.7062 18.0662 11.4807 18.7293C13.8962 14.0374 16.2905 9.33243 18.6634 4.61449C18.8746 4.33178 19.1391 4.1369 19.4568 4.02985ZM19.7074 9.04103C19.8899 9.15153 20.0152 9.31857 20.0832 9.54215C21.1968 12.0477 22.3104 14.5533 23.424 17.0589C23.4797 17.1703 23.4797 17.2817 23.424 17.393C23.225 17.6375 23.0162 17.8742 22.7976 18.1029C22.7419 18.1586 22.6863 18.1586 22.6305 18.1029C21.7246 17.183 20.8059 16.2782 19.8744 15.3885C18.9139 16.8084 17.9534 18.2282 16.993 19.648C16.4071 19.0761 15.8364 18.4915 15.2808 17.8941C16.7585 14.9387 18.2341 11.9876 19.7074 9.04103ZM29.5627 16.3908C30.1726 17.1632 30.7433 17.9706 31.2748 18.8128C31.4678 19.3068 31.6069 19.8079 31.6924 20.3162C31.08 20.0935 30.4675 19.8708 29.855 19.648C29.3604 20.5536 28.8871 21.4724 28.4352 22.4042C27.908 21.3383 27.4208 20.2526 26.9736 19.1469C26.9875 19.0912 27.0014 19.0356 27.0153 18.9799C27.8814 18.1278 28.7304 17.2648 29.5627 16.3908ZM9.10035 20.7338C9.21911 20.7513 9.33044 20.793 9.43442 20.8591C10.0925 21.3408 10.7328 21.8419 11.3554 22.3624C10.8869 23.3689 10.3858 24.3573 9.85202 25.3274C9.17075 25.0007 8.50259 24.6527 7.84755 24.2834C8.30098 23.1122 8.71858 21.929 9.10035 20.7338Z" fill="#192D2B"/>
</svg>
