<svg width="60" height="60" viewBox="0 0 60 60" fill="currentColor" xmlns="http://www.w3.org/2000/svg">
<path d="M18.5156 13.1127C12.9613 13.348 11.4172 13.842 9.08945 16.2184C7.84492 17.4889 7.40703 18.2653 5.47109 22.712C4.61836 24.7119 3.76562 26.3824 3.5582 26.4765C2.68242 26.7824 1.82969 27.6058 1.43789 28.4999C1.06914 29.3234 1 30.0763 1 34.0525C1 40.4991 1.3457 41.1343 5.37891 42.1225C7.17656 42.546 7.47617 42.6872 7.68359 43.2518C8.05234 44.1224 9.68867 45.7693 10.7949 46.3575C12.0855 47.0163 14.4363 47.1575 15.9344 46.6634C17.1789 46.2399 19.1148 44.6635 19.6449 43.6048L19.9676 42.993H31.4219H42.8762L43.775 44.2165C45.734 46.8987 49.1219 47.7457 52.0488 46.3105C53.5238 45.6046 54.2844 44.8753 55.2293 43.3224C55.6672 42.5931 56.0359 42.3107 56.7965 42.0755C58.2254 41.6284 59.0551 40.9461 59.5621 39.8403C59.9309 39.0168 60 38.2639 60 34.6171C60 30.6174 59.977 30.3115 59.4699 29.3234C59.1242 28.6646 58.5941 28.0999 58.018 27.7705C57.2344 27.3235 52.2102 26.1706 48.9145 25.7001C48.3383 25.606 47.7621 25.4648 47.6469 25.3942C47.5086 25.3001 46.1258 23.3238 44.5586 20.9945C42.9684 18.6653 41.2629 16.2889 40.7789 15.7478C39.6727 14.5008 38.1977 13.7009 36.423 13.3715C34.6484 13.0421 23.8395 12.8774 18.5156 13.1127ZM35.2707 17.2536C35.9391 17.3242 36.7918 17.6065 37.2297 17.8888C37.875 18.3359 42.2078 24.2178 42.2309 24.6884C42.2539 24.806 40.0645 24.8766 37.4141 24.8766H32.5512L33.3578 24.1472C35.2938 22.4297 34.3488 19.3476 31.8367 19.0652C28.7254 18.7123 27.2965 23.0179 30.016 24.5237C30.5691 24.8295 30.477 24.8531 28.6102 24.8766H26.582V20.8533V16.8301L30.3387 16.9712C32.3898 17.0654 34.6023 17.183 35.2707 17.2536ZM22.6641 20.9945V24.8766H19.8062H16.9484L17.709 24.1002C19.1148 22.665 18.9305 20.4769 17.3172 19.4652C15.773 18.5241 13.7449 19.1593 13.0766 20.8063C12.5926 21.9592 12.8461 23.1355 13.768 24.0767L14.5055 24.8295L11.7398 24.9237C10.1957 24.9707 8.92812 24.9942 8.88203 24.9707C8.65156 24.8766 11.0254 20.0769 11.7168 19.277C13.2609 17.4653 14.275 17.183 19.2762 17.1359L22.6641 17.1124V20.9945ZM15.2891 37.464C16.1648 37.9346 16.6719 38.9462 16.6719 40.1932C16.6719 41.0167 16.5336 41.3226 15.773 42.0755C15.0125 42.8519 14.7359 42.993 13.9062 42.993C11.5785 42.993 10.1727 40.6403 11.2559 38.5227C11.9242 37.2052 13.8602 36.7111 15.2891 37.464ZM51.127 37.8875C52.118 38.8992 52.3254 39.7462 51.9105 40.9696C51.0348 43.5106 47.4855 43.6518 46.4945 41.1814C46.0105 40.005 46.2641 38.8521 47.209 37.8875C47.8773 37.2052 48.1078 37.1111 49.168 37.1111C50.2281 37.1111 50.4586 37.2052 51.127 37.8875Z" fill="currentColor"/>
</svg>
