<svg width="1382" height="1256" viewBox="0 0 1382 1256" fill="none" xmlns="http://www.w3.org/2000/svg">
<path d="M416.704 241.221C416.304 241.888 414.97 242.554 413.904 242.554C410.704 242.554 402.704 248.421 402.704 250.821C402.704 252.154 402.17 253.221 401.37 253.221C400.704 253.221 400.037 255.754 400.037 258.954C400.037 264.954 405.237 274.554 408.57 274.554C409.504 274.554 411.904 276.021 413.77 277.754C416.57 280.288 417.37 280.554 417.904 278.954C418.437 277.888 419.504 277.221 420.437 277.621C423.37 278.688 430.704 274.421 432.837 270.421C435.637 264.954 435.104 262.688 431.104 261.754C423.637 260.154 423.104 259.888 426.037 258.288C427.504 257.488 429.77 255.754 431.104 254.421C433.237 252.154 433.237 251.621 431.37 248.821C426.704 241.621 418.97 237.621 416.704 241.221Z" fill="black"/>
<path fill-rule="evenodd" clip-rule="evenodd" d="M417.103 202.554C419.103 202.554 421.636 201.888 422.703 201.221C425.903 199.088 432.436 199.754 437.103 202.554C439.503 204.021 442.836 205.221 444.703 205.221C446.436 205.221 448.703 206.288 449.636 207.621C450.57 208.954 452.436 210.421 453.77 210.954C454.97 211.354 456.036 212.688 456.036 213.754C456.036 214.821 457.37 215.888 458.97 216.154C460.57 216.421 462.703 218.021 463.636 219.888C464.57 221.754 465.903 223.088 466.703 222.821C467.37 222.688 468.036 223.354 468.036 224.421C468.036 225.488 469.503 228.154 471.37 230.288C474.97 234.554 475.903 242.154 473.103 244.954C471.903 246.154 471.903 246.954 473.103 248.154C474.036 249.088 474.703 252.154 474.703 255.221C474.703 261.888 476.436 263.888 482.303 263.888C485.903 263.888 486.97 264.554 488.036 267.354C489.903 272.288 487.636 274.554 480.703 274.554C470.836 274.554 458.17 277.354 450.436 281.354C449.103 282.021 446.836 282.554 445.37 282.554C443.903 282.554 442.703 283.088 442.703 283.888C442.703 284.554 441.903 285.221 440.836 285.221C439.903 285.221 436.436 287.488 433.236 290.288C430.036 292.954 424.436 297.621 420.97 300.421C417.37 303.221 413.903 306.954 413.37 308.688C411.903 312.288 410.836 312.554 407.503 310.154C405.503 308.688 405.37 307.888 406.57 305.488C408.703 301.621 408.436 297.221 406.036 296.421C403.103 295.221 394.703 286.554 394.703 284.688C394.703 283.754 393.503 281.888 392.036 280.554C390.57 279.221 389.37 276.421 389.37 274.421C389.37 272.421 388.836 270.288 388.036 269.888C387.37 269.488 386.703 264.421 386.703 258.688C386.703 252.554 386.036 247.754 385.103 246.821C383.903 245.621 383.903 244.821 385.103 243.621C386.036 242.688 386.703 239.088 386.703 235.621C386.703 230.688 387.37 228.821 389.37 227.621C390.836 226.688 392.036 225.088 392.036 224.021C392.036 220.954 396.036 217.354 398.436 218.154C400.036 218.821 400.303 218.421 399.636 216.688C398.57 214.154 404.57 208.021 408.036 207.888C409.103 207.888 410.836 206.688 411.77 205.221C412.703 203.621 414.836 202.554 417.103 202.554ZM435.77 210.688C433.103 210.954 430.436 210.688 429.903 210.154C429.37 209.621 428.57 209.354 428.17 209.488C427.97 209.488 427.27 209.588 426.337 209.721C425.403 209.854 424.236 210.021 423.103 210.154C420.303 210.554 418.703 211.488 418.703 212.688C418.703 214.154 417.903 214.421 416.036 213.888C414.17 213.221 413.37 213.621 413.37 215.221C413.37 216.288 412.436 217.621 411.37 218.021C410.303 218.421 409.103 219.888 408.703 221.221C408.303 222.688 404.97 225.621 401.37 227.754C395.103 231.621 394.703 232.288 394.57 237.488C393.77 258.421 395.77 274.554 398.97 274.554C399.636 274.554 400.036 275.754 400.036 277.221C400.036 278.688 400.97 279.888 402.036 279.888C403.236 279.888 404.57 280.954 404.97 282.154C405.503 283.488 407.37 286.021 409.103 287.754C412.303 290.688 412.836 290.688 417.903 289.088C420.97 288.154 424.57 286.288 426.17 284.954C427.636 283.621 430.17 282.554 431.77 282.554C433.503 282.554 434.703 281.754 434.703 280.554C434.703 279.354 436.303 278.154 438.703 277.621C440.97 277.221 442.703 276.421 442.703 275.754C442.703 275.088 443.636 274.554 444.703 274.554C448.97 274.554 457.903 268.154 460.97 262.688C463.37 258.288 464.036 255.221 464.036 247.221C464.036 241.488 463.503 237.221 462.703 237.221C462.036 237.221 461.37 236.021 461.37 234.554C461.37 233.088 459.903 230.954 458.036 229.754C456.303 228.554 454.436 226.554 454.036 225.221C453.636 223.888 450.436 220.021 447.103 216.554C441.636 211.088 440.303 210.421 435.77 210.688Z" fill="black"/>
<path d="M252.437 300.554C244.837 308.554 246.571 316.421 258.304 326.021C262.704 329.621 264.571 330.554 265.771 329.354C266.571 328.554 268.171 327.887 269.104 327.887C270.171 327.887 273.237 325.754 275.771 323.087C280.171 318.554 280.171 318.287 277.904 315.754C275.771 313.354 275.771 313.087 278.037 310.554C279.637 308.821 280.037 307.221 279.237 305.621C278.704 304.287 278.171 302.554 278.037 301.754C277.771 297.487 274.304 295.887 265.504 295.887C257.237 295.887 256.437 296.154 252.437 300.554Z" fill="black"/>
<path fill-rule="evenodd" clip-rule="evenodd" d="M257.77 269.621C259.77 269.221 261.37 268.421 261.37 267.755C261.37 267.088 266.17 266.555 272.037 266.555C278.303 266.555 282.703 267.088 282.703 267.888C282.703 268.555 283.903 269.221 285.237 269.221C288.303 269.221 301.37 280.688 301.37 283.355C301.37 284.421 302.037 285.221 302.703 285.221C303.503 285.221 304.037 286.421 304.037 287.755C304.037 289.221 304.57 290.555 305.37 290.821C306.037 290.955 306.837 292.955 307.237 295.221C307.503 297.355 308.17 300.288 308.703 301.621C309.237 303.088 309.103 304.688 308.17 305.621C307.37 306.421 306.703 308.288 306.703 309.755C306.703 311.355 302.703 316.555 297.103 322.155C287.637 331.621 287.637 331.888 290.037 334.555C292.303 337.088 292.303 337.355 290.17 339.755C288.437 341.621 286.703 342.021 281.637 341.488C276.703 341.088 274.17 341.621 270.703 343.755C268.17 345.221 264.57 346.555 262.837 346.555C260.97 346.555 257.77 348.421 255.237 351.088C252.837 353.621 248.97 356.555 246.837 357.621C243.237 359.355 242.57 359.355 241.237 357.621C239.903 356.155 239.903 355.088 241.103 353.088C243.503 349.355 243.103 346.955 240.037 346.155C238.437 345.755 237.37 344.288 237.37 342.688C237.37 341.221 236.17 339.355 234.703 338.555C233.237 337.755 232.037 336.021 232.037 334.688C232.037 333.355 231.237 330.688 230.303 328.955C228.037 324.555 228.437 302.955 230.703 298.421C231.637 296.688 234.17 293.088 236.303 290.555C238.303 288.021 240.037 285.355 240.037 284.688C240.037 282.288 254.037 270.421 257.77 269.621ZM285.58 284.143C285.237 283.785 284.899 283.432 284.57 283.088C279.77 278.288 278.17 277.488 272.57 277.088C268.97 276.821 264.703 276.688 262.97 276.955C259.77 277.488 249.37 287.088 249.37 289.621C249.37 290.555 247.103 293.221 244.437 295.755L239.503 300.288V313.355C239.503 325.088 239.903 326.955 242.437 329.621C244.037 331.355 245.37 333.488 245.37 334.288C245.37 335.221 246.037 335.888 246.703 335.888C247.503 335.888 248.037 337.088 248.037 338.555C248.037 341.755 252.17 342.155 254.57 339.355C257.503 335.888 271.503 329.488 273.503 330.688C276.57 332.688 277.37 332.021 277.37 327.888C277.37 324.688 278.037 323.755 281.103 323.088C285.903 321.888 288.037 320.021 288.037 317.088C288.037 315.755 289.237 313.888 290.703 312.955C292.17 312.021 293.37 310.288 293.37 308.955C293.37 307.755 293.903 306.421 294.703 305.888C296.703 304.688 295.103 294.555 292.437 291.488C291.253 290.068 288.283 286.966 285.58 284.143Z" fill="black"/>
<path fill-rule="evenodd" clip-rule="evenodd" d="M334.97 295.621C336.17 295.621 339.503 294.554 342.303 293.221C347.637 290.688 350.037 290.954 352.037 294.554C353.903 298.021 350.837 301.088 344.97 301.621C342.17 302.021 339.237 302.821 338.437 303.621C337.637 304.421 336.17 304.688 335.237 304.288C331.637 302.954 334.837 307.754 339.37 310.554C346.303 314.821 346.97 316.288 344.703 320.821C343.503 323.088 341.77 325.621 340.703 326.554C339.637 327.488 338.703 329.354 338.703 330.688C338.703 332.954 334.837 336.288 327.637 339.888C324.837 341.221 323.637 341.354 322.437 340.154C321.503 339.221 319.77 338.554 318.57 338.554C315.503 338.554 309.37 330.554 309.37 326.688C309.37 321.088 316.97 312.021 321.77 311.888C322.97 311.888 324.037 311.221 324.037 310.554C324.037 309.754 322.97 309.221 321.637 309.221C317.637 309.221 317.237 307.754 320.303 303.488C323.103 299.488 330.837 295.354 334.97 295.621ZM328.303 308.954C329.903 308.688 331.503 307.488 331.77 306.154C332.437 302.954 328.437 303.221 326.703 306.688C325.37 309.088 325.503 309.354 328.303 308.954ZM336.17 324.421C338.57 321.888 338.837 320.954 337.37 319.221C334.703 316.021 326.57 316.954 322.437 321.088C318.037 325.354 317.903 326.688 321.503 329.888C324.037 332.288 324.303 332.288 328.703 330.021C331.237 328.688 334.57 326.154 336.17 324.421Z" fill="black"/>
<path d="M361.637 446.821C360.704 447.755 360.037 452.421 360.037 458.555C360.037 466.688 360.704 470.021 363.37 475.488C365.37 479.221 367.77 483.088 368.704 483.888C369.77 484.821 370.704 486.288 370.704 487.355C370.704 488.288 373.237 491.621 376.437 494.555C378.108 496.226 380.176 498.254 382.056 500.098L382.059 500.101C383.628 501.64 385.067 503.051 386.037 504.021C388.304 506.155 391.77 508.821 393.904 509.888C397.37 511.755 398.037 511.755 400.304 509.755C403.637 506.688 403.37 505.755 398.97 504.155C396.704 503.355 394.304 501.088 392.97 498.288C391.77 495.888 389.37 492.421 387.504 490.688C385.637 488.821 384.037 486.955 384.037 486.288C384.037 485.355 377.904 476.688 372.57 470.155C371.504 468.955 370.704 467.088 370.704 466.021C370.704 464.955 369.77 462.421 368.704 460.421C367.637 458.288 366.704 454.021 366.704 450.821C366.704 445.088 364.837 443.621 361.637 446.821Z" fill="black"/>
<path d="M542.57 494.555C543.37 494.555 545.503 493.088 547.503 491.221C552.037 486.955 554.303 486.955 556.303 491.221C557.637 494.155 557.37 495.088 554.837 497.755C553.237 499.355 550.303 501.621 548.303 502.688C546.303 503.621 543.103 506.021 541.237 507.888C536.57 512.421 530.17 516.021 516.703 522.021C513.77 523.221 509.503 525.755 507.237 527.488C504.97 529.088 501.77 530.555 500.17 530.555C498.57 530.555 495.903 531.221 494.437 532.021C492.837 532.821 488.97 533.488 485.903 533.488C482.703 533.355 479.77 533.888 479.37 534.555C478.303 536.288 471.103 536.288 470.037 534.555C469.637 533.755 467.77 533.221 466.037 533.221C464.303 533.221 462.437 533.755 462.037 534.555C461.637 535.221 459.77 535.888 458.037 535.888C456.303 535.888 454.437 535.221 454.037 534.555C453.637 533.755 452.303 533.221 451.37 533.221C447.77 533.221 435.37 526.688 430.17 522.021C424.97 517.355 424.837 517.221 427.37 514.555C430.437 511.221 433.103 511.221 437.37 514.555C439.237 516.021 441.77 517.221 443.103 517.221C444.303 517.221 445.37 517.621 445.37 518.155C445.37 520.421 453.103 522.555 461.503 522.555C466.437 522.555 470.97 523.088 471.37 523.888C471.77 524.555 473.37 525.221 474.837 525.221C476.17 525.221 477.37 524.555 477.37 523.888C477.37 523.088 479.37 522.555 481.77 522.555C484.037 522.555 487.503 521.355 489.37 519.888C491.503 518.288 494.837 517.221 498.303 517.221C501.37 517.221 504.303 516.555 504.703 515.888C505.103 515.088 507.103 514.555 508.97 514.555C510.837 514.555 514.437 513.088 516.837 511.221C519.237 509.355 522.037 508.155 522.97 508.555C524.037 508.955 526.037 508.155 527.37 506.555C528.703 505.088 530.437 503.888 531.37 503.888C532.303 503.888 534.037 502.688 535.37 501.221C536.703 499.755 538.57 498.555 539.637 498.555C540.57 498.555 541.37 497.621 541.37 496.555C541.37 495.488 541.903 494.555 542.57 494.555Z" fill="black"/>
<path d="M633.37 587.754C632.303 588.554 626.57 589.221 620.837 589.221C600.57 589.221 587.904 592.954 591.904 597.754C593.503 599.621 603.103 600.021 604.837 598.154C605.37 597.621 609.904 597.221 614.837 597.221C619.77 597.221 624.303 596.554 624.703 595.887C625.904 594.021 679.37 594.154 682.837 596.021C684.837 597.087 686.037 596.954 687.503 595.754C688.97 594.554 689.904 594.554 690.97 595.621C691.904 596.554 695.237 597.221 698.437 597.221C701.637 597.221 705.237 597.754 706.437 598.421C707.77 599.087 712.303 600.021 716.437 600.287C720.703 600.687 725.637 601.887 727.37 603.087C734.037 607.487 745.637 604.287 741.37 599.221C740.303 598.021 737.503 597.221 733.904 597.221C730.837 597.221 727.77 596.554 727.37 595.887C726.97 595.087 724.837 594.554 722.837 594.554C720.837 594.554 716.837 593.354 713.904 592.021C708.437 589.354 702.57 588.821 657.37 587.221C642.837 586.687 634.703 586.821 633.37 587.754Z" fill="black"/>
<path d="M548.703 602.554C550.436 602.554 552.303 601.888 552.703 601.221C553.636 599.754 582.97 599.354 584.436 600.821C586.436 602.688 582.036 605.221 576.57 605.221C573.503 605.221 570.57 605.754 570.17 606.288C569.903 606.821 565.503 607.354 560.436 607.621C554.17 607.754 549.636 608.688 545.77 610.688C541.636 612.821 538.97 613.354 535.503 612.688C532.836 612.154 530.703 611.354 530.703 610.954C530.703 608.421 535.636 605.221 539.503 605.221C541.903 605.221 544.303 604.554 544.703 603.888C545.103 603.088 546.97 602.554 548.703 602.554Z" fill="black"/>
<path d="M745.37 603.888C745.37 604.554 746.037 605.221 746.703 605.221C747.503 605.221 748.037 604.554 748.037 603.888C748.037 603.088 747.503 602.554 746.703 602.554C746.037 602.554 745.37 603.088 745.37 603.888Z" fill="black"/>
<path d="M758.836 609.62C757.77 610.687 756.57 610.287 754.436 608.154L751.503 605.22H754.97C759.103 605.22 760.97 607.487 758.836 609.62Z" fill="black"/>
<path d="M764.57 607.22C763.37 610.287 764.97 613.22 767.904 613.22C769.37 613.22 770.97 613.753 771.37 614.553C771.77 615.22 773.37 615.887 774.837 615.887C776.17 615.887 777.37 616.42 777.37 617.22C777.37 617.887 779.104 618.553 781.237 618.553C784.57 618.553 788.17 619.887 798.97 625.353C802.97 627.353 812.037 626.82 812.97 624.553C813.904 622.02 809.904 618.687 805.77 618.553C803.37 618.553 799.504 616.953 789.104 611.753C787.77 611.087 785.237 610.553 783.37 610.553C781.504 610.553 777.37 609.353 774.437 607.887C767.77 604.687 765.504 604.553 764.57 607.22Z" fill="black"/>
<path d="M504.036 620.154C504.036 619.621 506.036 618.421 508.436 617.621C510.703 616.954 514.436 616.154 516.703 616.021L520.57 615.888L515.503 621.088C512.436 624.154 508.57 626.688 506.036 627.088C503.636 627.621 499.636 630.021 497.103 632.421C491.903 637.488 487.37 639.354 486.036 637.221C485.103 635.621 490.17 629.221 492.303 629.221C492.97 629.221 495.103 627.354 496.97 625.221C498.703 622.954 501.103 621.221 502.17 621.221C503.236 621.221 504.036 620.688 504.036 620.154Z" fill="black"/>
<path d="M828.037 633.222C828.037 633.888 828.704 634.555 829.37 634.555C830.17 634.555 830.704 633.888 830.704 633.222C830.704 632.422 830.17 631.888 829.37 631.888C828.704 631.888 828.037 632.422 828.037 633.222Z" fill="black"/>
<path d="M837.37 636.82C835.903 636.42 834.703 635.087 834.703 633.887C834.703 632.02 835.503 631.753 839.103 632.287C848.303 633.887 851.503 635.087 856.17 638.687C858.836 640.82 861.503 642.553 862.036 642.553C862.57 642.553 865.636 644.287 868.97 646.553C875.103 650.687 878.57 651.487 880.836 649.22C882.303 647.753 893.37 656.287 893.37 658.953C893.37 659.887 896.703 662.02 900.703 663.887C904.703 665.753 908.036 667.62 908.036 668.153C908.036 668.553 909.77 669.353 912.036 669.887C914.17 670.42 916.436 671.487 916.97 672.287C917.636 673.22 920.436 674.687 923.37 675.753C926.303 676.687 930.57 679.22 932.703 681.22C934.97 683.22 938.17 685.753 939.903 686.953C941.636 688.02 943.77 690.42 944.57 692.153C945.37 693.753 947.236 695.353 948.57 695.62C951.37 696.153 957.236 702.42 957.37 704.82C957.37 705.753 958.17 706.553 959.103 706.553C960.17 706.553 962.036 707.753 963.37 709.22C964.703 710.687 966.436 711.887 967.236 711.887C968.036 711.887 972.036 715.62 976.036 720.153C980.036 724.687 985.903 730.953 989.103 734.02C992.17 737.087 994.703 740.153 994.703 740.953C994.703 741.753 998.036 745.753 1002.17 750.153C1006.3 754.42 1010.17 759.22 1010.84 760.953C1011.5 762.553 1013.1 764.287 1014.3 764.82C1017.24 765.887 1018.7 767.887 1018.7 770.82C1018.7 773.887 1016.3 773.887 1013.1 770.953C1011.77 769.753 1009.37 768.154 1007.77 767.353C1006.04 766.553 1004.04 764.553 1003.24 762.82C1002.44 761.22 1000.84 758.82 999.636 757.487C998.303 756.154 997.37 754.287 997.37 753.487C997.37 752.553 996.436 751.887 995.503 751.887C994.436 751.887 991.903 749.62 989.903 746.82C987.903 744.153 983.77 739.487 980.836 736.42C977.77 733.487 973.37 728.687 970.97 725.753C956.836 709.353 944.17 696.687 939.236 694.42C936.17 693.087 930.836 689.753 927.37 687.087C923.37 684.02 920.17 682.553 918.436 682.953C916.97 683.353 915.636 682.953 915.103 681.753C914.703 680.687 913.236 679.887 911.903 679.887C910.57 679.887 909.37 679.22 909.37 678.553C909.37 677.753 908.836 677.22 908.17 677.22C905.37 677.22 893.37 667.087 893.37 664.82C893.37 663.487 892.303 662.153 891.103 661.62C889.77 661.22 887.103 659.62 885.103 658.287C883.236 656.953 880.703 656.153 879.636 656.687C878.57 657.087 876.836 656.42 875.636 655.353C874.436 654.153 872.97 653.22 872.303 653.22C871.103 653.22 865.636 650.687 848.97 642.42C846.036 641.087 842.97 639.887 841.903 639.887C840.836 639.887 840.036 639.353 840.036 638.687C840.036 638.02 838.836 637.22 837.37 636.82Z" fill="black"/>
<path d="M464.303 646.154C462.17 648.154 459.237 650.554 457.903 651.354C456.57 652.154 454.97 653.888 454.17 655.221C453.37 656.554 450.703 659.488 448.437 661.621C443.77 665.754 442.703 669.221 446.036 669.221C447.103 669.221 448.036 668.554 448.036 667.888C448.036 667.088 448.703 666.554 449.503 666.554C452.036 666.554 472.17 647.488 471.77 645.488C471.103 642.021 468.57 642.288 464.303 646.154Z" fill="black"/>
<path d="M429.37 680.287C429.37 679.087 431.503 676.02 434.303 673.62C441.77 666.687 445.103 669.487 438.437 677.087C436.303 679.354 434.703 681.62 434.703 682.154C434.703 683.087 424.57 696.82 421.77 699.62C420.837 700.554 420.037 702.154 420.037 703.087C420.037 704.02 418.17 706.02 416.037 707.754C412.437 710.287 407.77 716.42 403.237 724.154C402.303 725.62 399.637 728.954 397.237 731.62C391.37 738.02 389.237 741.887 390.17 744.554C390.703 745.887 390.17 746.554 388.837 746.554C387.637 746.554 386.703 747.62 386.703 748.954C386.703 750.287 384.97 753.754 382.703 756.687C380.57 759.487 378.703 763.22 378.703 764.687C378.703 766.287 377.637 768.954 376.303 770.687C373.37 774.687 371.503 778.954 369.237 786.554C368.303 789.887 367.103 793.087 366.437 793.887C365.903 794.554 365.37 796.687 365.37 798.554C365.37 802.554 359.103 815.887 357.237 815.887C355.103 815.887 354.17 811.62 355.77 809.087C356.703 807.754 357.37 804.82 357.37 802.554C357.37 800.42 358.57 796.554 360.037 793.887C361.503 791.22 362.703 788.02 362.703 786.554C362.703 785.087 363.37 783.887 364.037 783.887C364.837 783.887 365.37 781.62 365.37 778.687C365.37 775.62 366.437 772.287 368.037 770.154C369.503 768.287 370.703 765.887 370.703 764.82C370.703 763.62 371.37 762.287 372.037 761.887C372.837 761.487 373.37 760.02 373.37 758.687C373.37 757.487 374.837 754.42 376.703 751.887C378.57 749.354 380.037 746.02 380.037 744.287C380.037 742.42 380.837 741.22 382.037 741.22C383.103 741.22 384.037 740.687 384.037 739.887C384.037 739.22 386.437 735.487 389.37 731.62C392.303 727.754 394.703 724.02 394.703 723.354C394.703 722.687 396.037 720.82 397.77 719.22C402.037 714.954 405.37 710.687 405.37 709.22C405.37 708.554 408.703 704.687 412.703 700.554C416.703 696.42 420.037 692.287 420.037 691.487C420.037 690.554 422.17 688.154 424.703 686.154C427.237 684.154 429.37 681.487 429.37 680.287Z" fill="black"/>
<path d="M1018.17 775.353C1017.64 776.553 1018.17 778.553 1019.37 779.887C1020.44 781.087 1021.37 782.82 1021.37 783.887C1021.37 784.82 1024.44 790.02 1028.04 795.353C1031.77 800.82 1034.3 805.22 1033.77 805.22C1033.24 805.22 1034.17 806.42 1035.77 807.887C1037.37 809.487 1038.7 811.353 1038.7 812.287C1038.7 813.22 1040.84 815.62 1043.37 817.887C1045.9 820.02 1048.04 823.087 1048.04 824.687C1048.04 826.153 1049.9 829.087 1052.17 831.353C1054.44 833.487 1057.5 837.887 1058.97 841.22C1066.3 857.353 1068.44 861.353 1069.77 860.82C1072.7 859.887 1072.3 854.42 1068.84 847.22C1066.84 843.353 1064.44 839.487 1063.37 838.553C1062.3 837.62 1061.37 835.753 1061.37 834.42C1061.37 832.953 1060.84 831.887 1060.04 831.887C1059.37 831.887 1058.7 831.087 1058.7 830.153C1058.7 829.353 1056.3 825.353 1053.37 821.487C1050.44 817.62 1048.04 813.62 1048.04 812.553C1048.04 811.487 1047.5 810.553 1046.7 810.553C1046.04 810.553 1045.37 809.753 1045.37 808.687C1045.37 807.62 1042.97 803.753 1040.04 800.02C1037.1 796.287 1034.7 792.687 1034.7 791.887C1034.7 790.953 1032.44 788.287 1029.5 785.753C1026.57 783.087 1024.04 779.353 1023.5 777.087C1022.7 772.953 1019.5 771.887 1018.17 775.353Z" fill="black"/>
<path d="M1078.44 882.021C1076.57 883.221 1073.37 878.954 1073.37 874.954C1073.37 871.354 1074.3 871.088 1077.64 874.154C1080.3 876.554 1080.84 880.554 1078.44 882.021Z" fill="black"/>
<path d="M1075.1 887.355C1074.7 888.422 1074.97 890.022 1075.9 890.955C1076.7 891.755 1077.37 894.688 1077.37 897.355C1077.37 900.155 1078.04 902.822 1078.7 903.222C1079.5 903.622 1080.04 906.288 1080.04 909.222C1080.04 912.022 1081.1 916.555 1082.57 919.488C1085.24 925.089 1088.04 938.022 1088.04 945.355C1088.04 947.888 1088.57 950.555 1089.37 951.355C1090.04 952.022 1090.84 958.822 1090.97 966.422C1091.37 981.488 1092.97 984.422 1096.57 977.089C1098.97 972.289 1099.5 961.888 1097.37 960.555C1096.7 960.155 1096.04 955.355 1096.04 949.888C1096.04 944.422 1095.5 939.622 1094.7 939.222C1094.04 938.822 1093.37 936.688 1093.37 934.555C1093.37 932.422 1092.84 930.288 1092.04 929.888C1091.37 929.488 1090.7 927.089 1090.7 924.555C1090.7 922.022 1090.17 919.622 1089.37 919.222C1088.7 918.822 1088.04 915.222 1088.04 911.222C1088.04 904.555 1087.37 902.155 1083.64 893.222C1081.77 889.089 1078.7 885.222 1077.1 885.222C1076.44 885.222 1075.64 886.155 1075.1 887.355Z" fill="black"/>
<path d="M1085.37 999.755C1085.37 998.155 1086.3 995.622 1087.64 994.288C1090.44 991.222 1093.37 991.222 1093.37 994.155C1093.24 1003.09 1085.37 1015.62 1083.24 1010.16C1082.84 1008.96 1083.1 1006.96 1083.9 1005.36C1084.7 1003.89 1085.37 1001.36 1085.37 999.755Z" fill="black"/>
<path fill-rule="evenodd" clip-rule="evenodd" d="M413.637 12.4204C414.57 10.5538 418.97 6.95375 423.37 4.55375C430.57 0.553752 432.437 0.153753 442.97 0.0204192C449.37 -0.112914 454.97 0.420419 455.37 1.22042C455.77 1.88709 457.504 2.55375 459.237 2.55375C460.97 2.55375 463.37 3.75375 464.704 5.22042C466.037 6.68709 468.037 7.88709 469.237 7.88709C470.437 7.88709 472.17 9.08709 473.104 10.5538C474.037 12.0204 475.504 13.2204 476.57 13.2204C478.704 13.2204 490.704 24.6871 490.704 26.6871C490.704 27.4871 495.104 32.4204 500.437 37.7538C506.304 43.6204 511.637 50.4204 514.037 55.3538C516.304 59.6204 519.104 64.1538 520.304 65.2204C523.504 68.1538 528.037 76.8204 528.037 80.2871C528.037 81.8871 529.237 84.6871 530.704 86.5538C532.17 88.4204 533.37 90.5538 533.37 91.4871C533.37 92.2871 533.904 93.2204 534.704 93.4871C535.37 93.6204 536.304 98.9538 536.57 105.22C537.504 120.687 538.57 128.02 540.437 131.62C541.504 134.02 541.504 135.354 540.17 137.354C538.97 139.487 538.837 140.554 540.17 142.02C541.37 143.487 541.37 144.42 540.304 145.487C539.37 146.42 538.704 151.22 538.704 156.687C538.704 162.02 538.17 166.687 537.504 167.087C536.17 168.02 534.837 180.554 535.637 184.02C536.037 185.487 537.504 186.554 539.237 186.554C540.704 186.554 543.504 187.754 545.37 189.22C547.237 190.687 549.637 191.887 550.704 191.887C551.77 191.887 554.17 193.087 556.037 194.554C557.904 196.02 560.57 197.22 562.037 197.22C564.704 197.22 578.704 210.954 578.704 213.754C578.704 214.554 579.904 216.154 581.37 217.22C582.837 218.287 584.037 220.154 584.037 221.487C584.037 222.954 584.97 223.887 586.704 223.887C588.97 223.887 589.37 222.954 589.37 218.687C589.37 215.754 590.037 212.954 590.704 212.554C591.504 212.154 592.037 210.42 592.037 208.687C592.037 203.754 595.37 198.42 605.37 188.02C614.97 177.887 616.17 175.887 612.704 175.887C611.637 175.887 610.704 175.22 610.704 174.554C610.704 173.754 609.904 173.22 608.97 173.22C608.037 173.22 603.37 170.154 598.57 166.287C593.904 162.42 589.237 158.687 588.304 158.02C588.083 157.831 587.802 157.596 587.484 157.331C586.46 156.477 585.055 155.305 584.037 154.287C582.704 153.087 580.304 151.754 578.704 151.22C576.97 150.687 572.17 146.82 567.904 142.687L560.037 135.22V125.087C560.037 113.887 560.704 112.687 568.037 111.354C579.37 109.087 581.104 109.087 581.904 110.42C582.437 111.22 584.837 111.887 587.104 111.887C590.437 111.887 592.837 113.354 598.037 118.554C601.77 122.154 605.37 125.22 606.037 125.22C606.837 125.22 609.637 127.087 612.437 129.22C615.37 131.354 618.437 132.687 619.504 132.287C620.837 131.754 621.104 132.287 620.57 133.754C619.504 136.554 621.77 136.42 624.437 133.487C625.904 131.887 626.57 128.687 626.437 122.954C626.304 116.687 626.97 113.887 629.237 110.82C630.704 108.554 632.037 106.02 632.037 104.954C632.037 102.154 643.104 90.5538 645.637 90.5538C646.837 90.5538 648.304 89.8871 648.704 89.2204C649.104 88.4204 652.037 87.8871 654.97 87.8871C659.904 87.8871 661.237 88.6871 666.304 94.0204C669.504 97.4871 672.037 101.354 672.037 102.687C672.037 104.02 672.704 105.487 673.37 105.887C674.17 106.287 674.704 108.154 674.704 109.887C674.704 111.62 674.17 113.487 673.37 113.887C671.637 114.954 671.637 123.487 673.37 124.554C674.437 125.22 674.304 126.02 673.37 127.22C672.437 128.287 672.17 129.754 672.57 130.42C673.104 131.087 672.837 132.02 672.037 132.554C671.37 132.954 670.704 133.887 670.704 134.687C670.704 136.82 674.17 136.02 676.837 133.087C681.904 127.487 690.437 122.554 695.237 122.554C697.77 122.554 700.304 121.887 700.704 121.22C701.104 120.42 703.504 119.887 705.904 119.887C709.37 119.887 711.637 121.087 715.904 125.487C721.637 131.354 722.037 133.354 720.437 143.087C719.904 146.954 718.037 149.887 713.637 154.154C710.304 157.354 706.837 159.887 705.904 159.887C705.104 159.887 703.637 160.687 702.837 161.62C702.037 162.82 699.104 163.354 695.37 163.087C689.637 162.82 689.37 162.954 690.17 165.62C691.504 170.154 695.904 175.62 698.704 176.554C700.17 177.087 701.37 178.02 701.37 178.82C701.37 180.687 705.504 183.754 708.037 183.887C709.237 183.887 712.704 186.287 715.904 189.22C721.904 194.82 732.437 202.554 734.17 202.554C735.637 202.554 746.837 214.82 749.37 219.22C750.57 221.354 752.704 223.487 754.037 223.754C757.237 224.287 758.97 226.154 761.77 232.02C762.97 234.687 764.837 237.62 766.037 238.554C767.104 239.487 768.037 241.087 768.037 242.154C768.037 243.22 769.904 245.62 772.037 247.487C774.304 249.22 776.037 251.887 776.037 253.22C776.037 254.554 776.704 256.154 777.37 256.554C778.17 256.954 778.704 258.554 778.704 260.02C778.704 261.354 779.237 263.62 779.904 264.954C780.57 266.154 781.77 268.954 782.704 271.22C782.952 271.789 783.22 272.414 783.492 273.049L783.492 273.05C784.239 274.795 785.015 276.607 785.504 277.487C786.17 278.82 786.704 280.687 786.704 281.62C786.704 282.554 787.904 285.887 789.37 288.954C791.504 293.22 792.037 297.354 792.17 307.887C792.304 315.22 792.837 321.62 793.504 322.02C794.17 322.42 794.704 329.22 794.704 337.22C794.704 345.487 795.237 352.02 796.037 352.554C796.837 352.954 797.37 355.487 797.37 358.02C797.37 360.554 798.037 362.554 798.704 362.554C799.504 362.554 800.037 363.487 800.037 364.554C800.037 365.62 801.237 367.754 802.704 369.22C804.17 370.687 805.37 373.087 805.37 374.554C805.37 376.154 806.57 378.554 808.037 380.154C809.504 381.754 810.704 383.887 810.704 384.82C810.704 385.754 811.104 386.554 811.77 386.554C812.304 386.554 813.504 388.554 814.57 390.82C815.637 393.22 818.17 397.754 820.304 400.82C822.304 403.887 824.037 406.687 824.037 407.087C824.037 407.354 826.437 411.354 829.37 415.754C832.304 420.154 834.704 424.154 834.704 424.687C834.704 425.887 841.237 431.887 842.437 431.887C843.504 431.887 846.57 435.487 848.837 439.354C849.637 440.687 851.504 442.154 852.837 442.42C856.037 442.954 865.504 449.487 873.237 456.154C876.437 458.954 880.437 461.22 882.17 461.22C883.77 461.22 885.637 461.754 886.037 462.554C886.437 463.22 888.037 463.887 889.37 463.887C890.837 463.887 892.97 464.954 894.304 466.287C897.237 469.087 901.37 471.087 909.37 473.22C912.704 474.02 917.77 475.887 920.704 477.22C935.904 484.02 941.237 486.82 942.704 488.554C943.637 489.62 945.37 490.554 946.704 490.554C948.037 490.554 949.77 491.487 950.704 492.554C951.637 493.62 953.104 494.554 953.904 494.554C954.704 494.554 956.704 496.02 958.304 497.754C960.037 499.487 964.704 502.554 968.704 504.42C972.704 506.42 976.037 508.82 976.037 509.754C976.037 510.687 977.637 512.287 979.77 513.354C981.77 514.42 984.437 516.554 985.77 518.154C987.104 519.754 989.504 521.487 991.104 522.02C992.704 522.554 996.17 524.687 998.837 526.687C1001.5 528.82 1004.3 530.554 1004.97 530.554C1005.64 530.554 1008.57 532.954 1011.37 535.887C1014.17 538.82 1017.37 541.22 1018.3 541.22C1020.57 541.22 1037.37 558.154 1037.37 560.554C1037.37 561.62 1038.7 563.087 1040.44 564.02C1044.7 566.154 1053.37 574.82 1053.37 576.82C1053.37 577.754 1054.04 578.554 1054.7 578.554C1055.5 578.554 1056.04 579.754 1056.04 581.22C1056.04 582.687 1056.57 583.887 1057.24 583.887C1059.64 583.887 1072.04 596.154 1072.04 598.687C1072.04 600.02 1074.44 603.62 1077.37 606.687C1080.3 609.754 1082.7 612.954 1082.7 613.62C1082.7 614.287 1084.17 616.02 1085.9 617.354C1087.64 618.687 1091.37 623.22 1094.04 627.22C1096.7 631.354 1100.04 635.354 1101.5 636.287C1102.84 637.087 1104.04 638.687 1104.04 639.62C1104.04 641.754 1112.04 653.22 1113.5 653.22C1114.84 653.22 1120.04 664.154 1120.04 666.82C1120.04 668.02 1121.9 670.554 1124.04 672.287C1126.3 674.154 1128.04 676.554 1128.04 677.62C1128.04 678.687 1129.24 680.554 1130.7 681.887C1132.17 683.22 1133.37 684.954 1133.37 685.887C1133.37 686.82 1134.57 688.554 1136.04 689.887C1137.5 691.22 1138.7 693.22 1138.7 694.287C1138.7 695.354 1140.57 698.42 1142.7 701.22C1144.97 704.02 1146.7 706.954 1146.7 707.754C1146.7 708.554 1147.37 709.22 1148.04 709.22C1148.84 709.22 1149.37 710.287 1149.37 711.62C1149.37 712.954 1150.84 715.487 1152.7 717.22C1154.57 718.954 1157.64 723.754 1159.5 727.754C1161.9 732.981 1162.99 735.362 1164.39 737.544C1165.56 739.37 1166.95 741.056 1169.5 744.154C1175.64 751.487 1181.37 761.754 1181.37 765.487C1181.37 767.087 1182.57 769.62 1183.9 771.087C1187.24 774.687 1192.04 783.487 1192.04 785.887C1192.04 788.82 1201.24 806.02 1204.3 808.687C1205.77 810.02 1208.04 813.62 1209.37 816.687C1210.84 819.62 1212.84 822.954 1214.04 823.887C1215.1 824.82 1216.04 826.287 1216.04 827.354C1216.04 828.287 1219.77 832.82 1224.44 837.487C1229.1 842.154 1234.04 848.02 1235.5 850.554C1236.84 853.087 1240.3 857.754 1243.1 860.82C1245.77 864.02 1248.04 867.62 1248.04 868.954C1248.04 870.287 1249.5 872.82 1251.37 874.554C1254.3 877.354 1255.24 877.487 1257.37 876.154C1260.57 874.154 1266.7 874.02 1266.7 875.887C1266.7 876.554 1267.9 877.22 1269.37 877.22C1270.84 877.22 1272.04 877.754 1272.04 878.554C1272.04 879.22 1273.5 879.887 1275.1 879.887C1276.84 879.887 1279.37 881.087 1280.7 882.554C1282.04 884.02 1283.77 885.22 1284.7 885.22C1286.97 885.22 1293.37 888.42 1293.37 889.487C1293.37 890.154 1294.57 890.554 1295.9 890.554C1297.37 890.554 1298.7 890.954 1298.97 891.487C1300.3 894.554 1308.44 898.554 1313.24 898.554C1316.17 898.554 1318.97 899.22 1319.37 899.887C1319.77 900.687 1323.24 901.22 1326.97 901.22C1333.5 901.22 1340.57 902.82 1345.64 905.354C1346.97 906.02 1351.37 906.554 1355.37 906.554C1359.37 906.554 1362.7 906.954 1362.7 907.487C1362.7 908.554 1369.1 911.887 1371.1 911.887C1373.64 911.887 1376.04 915.887 1376.04 920.287C1376.04 923.754 1376.7 925.087 1378.7 925.62C1380.3 926.02 1381.37 927.487 1381.37 929.22C1381.37 930.954 1380.3 932.42 1378.7 932.82C1376.7 933.354 1376.04 934.687 1376.04 938.02C1376.04 942.02 1375.37 942.82 1370.44 945.087C1367.24 946.554 1363.24 949.22 1361.5 951.087C1358.17 954.554 1351.64 955.754 1350.04 953.22C1349.64 952.554 1345.1 951.887 1340.17 951.887C1334.97 951.887 1330.44 951.22 1329.37 950.154C1327.77 948.82 1327.77 948.954 1329.37 950.954C1330.3 952.287 1333.37 954.554 1336.04 955.887C1338.7 957.22 1341.64 959.354 1342.57 960.42C1343.64 961.62 1345.5 962.554 1346.84 962.554C1348.3 962.554 1349.37 963.22 1349.37 964.02C1349.37 964.82 1350.17 965.22 1351.24 964.82C1354.04 963.754 1360.04 973.487 1360.04 979.087C1360.04 981.487 1359.1 984.287 1358.04 985.22C1356.97 986.154 1356.04 987.62 1356.04 988.554C1356.04 991.22 1349.9 994.554 1344.84 994.554C1342.3 994.554 1339.77 995.087 1339.37 995.887C1338.97 996.554 1334.7 997.22 1329.9 997.22C1325.1 997.22 1321.37 996.687 1321.37 995.887C1321.37 995.087 1320.57 994.554 1319.5 994.554C1318.44 994.554 1317.37 993.754 1316.97 992.82C1316.7 991.887 1315.9 991.754 1315.24 992.42C1314.57 993.087 1314.7 993.887 1315.77 994.154C1316.57 994.554 1317.37 995.487 1317.37 996.42C1317.37 997.22 1319.24 1000.29 1321.64 1003.22C1324.84 1006.95 1325.9 1009.49 1325.5 1012.42C1324.7 1020.95 1316.04 1025.75 1304.04 1024.29C1298.97 1023.75 1296.44 1022.42 1291.24 1017.75C1287.77 1014.55 1284.04 1011.89 1283.1 1011.89C1280.44 1011.89 1274.84 1006.02 1272.84 1000.95C1271.77 998.42 1269.9 995.62 1268.84 994.554C1267.64 993.62 1266.7 991.754 1266.7 990.287C1266.7 988.954 1265.24 986.154 1263.37 984.154C1261.5 982.154 1260.3 979.887 1260.57 978.954C1260.97 978.154 1260.04 975.887 1258.57 974.154C1257.24 972.287 1256.04 968.954 1256.04 966.687C1256.04 964.42 1255.5 962.554 1254.7 962.554C1254.04 962.554 1253.37 963.754 1253.37 965.087C1253.37 966.554 1252.97 967.887 1252.44 968.154C1250.84 968.82 1245.37 979.887 1245.37 982.154C1245.37 984.02 1242.57 987.62 1233.9 997.354C1228.3 1003.62 1224.3 1006.55 1220.17 1007.35C1217.9 1007.89 1215.64 1008.82 1215.24 1009.35C1214.84 1010.02 1213.1 1010.55 1211.37 1010.55C1209.64 1010.55 1207.77 1011.09 1207.37 1011.89C1206.97 1012.55 1205.1 1013.22 1203.37 1013.22C1201.64 1013.22 1199.77 1013.75 1199.37 1014.55C1198.97 1015.22 1197.37 1015.89 1196.04 1015.89C1193.5 1015.89 1184.7 1020.15 1182.04 1022.69C1181.37 1023.35 1178.97 1023.89 1176.7 1023.89C1174.44 1023.89 1172.04 1024.42 1171.37 1025.09C1168.84 1027.35 1138.3 1042.55 1136.17 1042.55C1134.97 1042.55 1131.5 1044.95 1128.7 1047.89C1125.9 1050.82 1122.44 1053.22 1121.1 1053.22C1119.77 1053.22 1117.5 1053.75 1116.04 1054.55C1114.57 1055.22 1112.17 1056.42 1110.7 1057.22C1109.24 1057.89 1105.37 1058.55 1102.17 1058.55C1098.84 1058.55 1095.77 1059.22 1095.37 1059.89C1094.97 1060.69 1092.57 1061.22 1090.04 1061.22C1087.5 1061.22 1085.1 1061.75 1084.7 1062.55C1083.64 1064.29 1067.1 1064.29 1066.04 1062.55C1065.64 1061.89 1062.97 1061.22 1060.17 1061.22C1055.64 1061.22 1053.9 1062.55 1039.9 1076.02C1023.9 1091.62 1014.97 1098.55 1011.24 1098.55C1010.04 1098.55 1007.77 1100.02 1006.17 1101.75C1001.24 1107.35 988.97 1117.22 986.837 1117.22C985.77 1117.22 983.904 1118.02 982.837 1119.09C979.637 1121.75 968.17 1127.89 966.17 1127.89C965.237 1127.89 961.637 1130.29 958.304 1133.22C954.97 1136.15 951.104 1138.55 949.637 1138.55C948.17 1138.55 946.304 1139.49 945.37 1140.55C943.37 1142.95 925.37 1151.89 922.57 1151.89C921.37 1151.89 919.637 1152.82 918.704 1153.89C916.304 1156.69 910.57 1159.35 902.437 1161.22C898.57 1162.15 894.304 1163.35 893.104 1164.02C891.77 1164.69 888.704 1165.22 886.304 1165.22C883.904 1165.22 881.237 1165.89 880.304 1166.82C879.104 1168.02 878.304 1168.02 877.104 1166.82C875.104 1164.82 867.237 1164.69 866.037 1166.55C865.637 1167.22 863.104 1167.89 860.57 1167.89C854.17 1167.89 854.57 1171.35 861.37 1174.02C864.304 1175.22 866.704 1176.95 866.704 1178.02C866.704 1178.95 869.104 1182.95 872.037 1186.82C874.97 1190.69 877.37 1194.42 877.37 1195.09C877.37 1195.62 879.237 1198.29 881.37 1200.82C883.637 1203.22 885.37 1206.82 885.37 1208.55C885.37 1210.42 886.17 1213.22 887.104 1214.69C888.437 1216.95 888.437 1217.75 887.104 1218.15C886.17 1218.55 885.37 1219.75 885.37 1220.82C885.37 1224.69 878.97 1229.22 873.504 1229.22C864.97 1229.22 850.704 1220.42 850.704 1215.22C850.704 1214.15 849.904 1213.22 848.97 1213.22C846.837 1213.22 842.17 1208.29 840.97 1204.82C840.437 1203.62 839.504 1202.55 838.704 1202.55C836.97 1202.55 836.97 1208.42 838.704 1211.89C839.504 1213.35 840.704 1215.75 841.37 1217.22C842.17 1218.69 842.704 1220.82 842.704 1221.89C842.704 1222.95 843.104 1223.89 843.77 1223.89C845.37 1223.89 848.037 1234.02 848.037 1240.29C848.037 1244.69 847.104 1247.09 843.904 1250.95C841.637 1253.62 839.237 1255.89 838.57 1255.89C837.77 1255.89 833.104 1252.55 828.037 1248.42L818.837 1240.95L814.57 1243.09C812.17 1244.29 809.37 1245.22 808.037 1245.22C806.837 1245.22 805.237 1245.89 804.304 1246.82C802.437 1248.69 797.37 1244.82 797.37 1241.35C797.37 1240.15 796.17 1237.75 794.704 1235.89C793.237 1234.02 792.037 1231.89 792.037 1231.22C792.037 1230.42 790.17 1228.42 788.037 1226.69C785.237 1224.55 784.037 1222.42 784.037 1219.75C784.037 1217.62 782.837 1213.89 781.37 1211.22C779.904 1208.69 777.504 1204.42 776.037 1201.75C773.904 1198.15 773.637 1196.55 774.704 1195.22C775.77 1194.02 775.77 1192.69 774.837 1190.95C774.17 1189.62 773.237 1187.49 772.837 1186.15C772.304 1184.42 770.57 1183.89 764.837 1183.89C760.837 1183.89 757.104 1184.42 756.704 1185.22C755.637 1186.95 738.304 1186.95 736.437 1185.09C735.37 1184.02 734.17 1184.15 732.17 1185.49C730.037 1186.82 728.837 1186.82 726.97 1185.75C725.37 1184.69 723.77 1184.69 721.637 1185.62C719.637 1186.55 717.77 1186.55 715.637 1185.49C714.037 1184.69 708.57 1183.62 703.37 1183.22C689.504 1182.29 682.17 1181.09 680.704 1179.75C680.037 1179.09 676.57 1178.55 673.104 1178.55C669.504 1178.55 665.504 1177.89 664.037 1177.22C662.57 1176.42 660.17 1175.22 658.704 1174.55C657.237 1173.75 651.637 1173.22 646.304 1173.22C638.17 1173.22 636.037 1172.82 634.037 1170.55C632.304 1168.69 629.904 1167.89 625.904 1167.89C622.704 1167.89 619.77 1167.22 619.37 1166.55C618.97 1165.89 616.704 1165.22 614.437 1165.22C609.37 1165.22 602.704 1163.22 595.37 1159.49L587.104 1155.35C585.37 1154.55 584.037 1153.49 584.037 1152.82C584.037 1152.29 583.237 1151.89 582.304 1151.89C581.237 1151.89 579.37 1150.69 578.037 1149.22C576.704 1147.75 574.037 1146.55 572.17 1146.55C570.304 1146.55 567.237 1145.35 565.37 1143.89C563.37 1142.29 559.904 1141.22 556.57 1141.22C552.837 1141.22 550.304 1140.42 548.704 1138.55C547.37 1137.09 544.704 1135.89 542.704 1135.89C540.437 1135.89 536.837 1134.02 532.97 1130.55C529.637 1127.62 526.437 1125.22 525.77 1125.22C524.97 1125.22 523.37 1123.89 521.904 1122.42C520.57 1120.82 517.237 1118.15 514.704 1116.55C512.17 1114.82 505.904 1109.49 500.97 1104.69C495.904 1099.89 491.237 1095.89 490.704 1095.89C488.97 1095.89 458.704 1065.22 458.704 1063.35C458.704 1062.55 456.437 1060.42 453.904 1058.55C451.237 1056.69 447.504 1053.75 445.504 1051.89C443.637 1050.02 439.904 1046.95 437.37 1045.09C429.37 1039.09 402.17 1011.35 402.437 1009.49C402.704 1008.69 402.17 1007.89 401.37 1007.89C400.704 1007.89 400.037 1006.82 400.037 1005.49C400.037 1004.15 398.437 1001.62 396.57 999.754C394.704 998.02 391.504 992.954 389.237 988.287C387.104 983.754 384.837 979.887 384.304 979.62C382.97 979.087 376.837 969.354 374.57 964.154C373.637 961.887 371.904 959.887 370.97 959.887C370.037 959.887 368.837 958.554 368.17 956.82C367.504 955.22 364.17 950.42 360.837 946.287C357.504 942.154 354.704 937.62 354.704 936.154C354.704 934.82 353.237 932.287 351.37 930.554C347.637 927.087 338.704 909.887 338.704 906.154C338.704 904.954 338.17 903.887 337.637 903.887C336.97 903.887 335.637 901.354 334.704 898.154C333.77 895.087 331.904 890.154 330.57 887.087C329.104 884.154 328.037 879.354 328.037 876.42C328.037 873.487 327.504 870.554 326.837 869.754C326.17 869.087 325.37 866.154 324.97 863.22C322.57 846.554 316.97 824.82 313.37 818.287C312.57 816.954 312.037 814.82 312.037 813.62C312.037 812.287 310.837 809.754 309.37 807.887C307.904 806.02 306.704 803.487 306.704 802.154C306.704 800.954 306.17 798.82 305.504 797.487C301.104 788.82 300.837 787.754 302.437 785.22C304.304 782.154 304.57 776.954 302.837 775.22C300.837 773.087 297.637 760.02 298.304 757.22C298.704 755.754 298.304 753.62 297.37 752.554C296.57 751.62 295.637 748.287 295.37 745.22C295.237 742.154 294.704 739.354 294.17 738.954C293.77 738.42 293.37 736.554 293.37 734.554C293.37 732.687 292.837 730.554 292.17 729.887C291.37 729.087 290.704 724.687 290.437 719.887C290.037 712.42 289.637 711.087 286.837 709.754C285.104 708.82 279.637 704.154 274.57 699.354C268.17 693.22 264.304 690.554 262.037 690.554C260.17 690.554 257.637 690.02 256.304 689.354C255.221 688.752 253.051 687.824 251.266 687.061C251.074 686.979 250.885 686.898 250.704 686.82C242.037 683.487 234.17 679.087 232.837 676.954C232.037 675.62 230.037 674.554 228.437 674.554C226.837 674.554 225.104 674.02 224.704 673.22C224.304 672.42 221.237 671.887 218.037 671.887C214.837 671.887 211.77 671.354 211.37 670.554C210.97 669.754 207.904 669.22 204.704 669.22C201.504 669.22 198.437 668.554 198.037 667.887C197.637 667.087 195.77 666.554 194.17 666.554C192.437 666.554 190.304 665.62 189.37 664.42C188.304 663.354 185.504 661.487 182.837 660.42C180.17 659.354 176.704 657.22 175.104 655.62C173.504 654.154 171.637 653.354 170.837 653.887C170.037 654.287 169.37 653.887 169.37 652.954C169.37 652.02 168.17 650.42 166.704 649.487C165.104 648.554 163.37 646.287 162.704 644.42C162.037 642.687 160.304 640.82 159.104 640.287C155.904 639.087 138.704 622.287 138.704 620.42C138.704 619.487 136.304 616.687 133.37 614.02C130.304 611.22 128.037 608.02 128.037 606.42C128.037 604.82 126.17 601.754 124.037 599.62C121.77 597.62 120.037 595.087 120.037 594.287C120.037 593.354 116.437 589.22 112.037 584.954C107.637 580.82 104.037 576.954 104.037 576.554C104.037 576.02 101.637 572.954 98.7037 569.62C95.7704 566.287 93.3704 562.687 93.3704 561.754C93.3704 560.687 91.9037 558.954 90.037 557.754C88.1704 556.554 85.7704 553.62 84.7037 551.354C83.637 549.087 81.5037 545.354 80.1704 543.22C78.437 540.687 77.5037 536.687 77.5037 532.154L77.3704 525.22H71.3704C68.037 525.22 64.1704 525.887 62.7037 526.82C60.7037 528.02 59.5037 528.02 56.837 526.687C54.9704 525.62 52.1704 525.22 50.437 525.754C44.437 527.487 33.637 528.02 32.7037 526.687C31.5037 524.554 11.1037 524.82 10.3037 526.82C9.5037 529.354 5.37037 526.554 2.57037 521.754C-1.02963 515.887 -0.762967 501.22 2.83703 497.487C7.63703 492.287 15.7704 487.887 20.5704 487.887C23.1037 487.887 25.637 487.22 26.037 486.554C26.437 485.754 28.037 485.22 29.5037 485.22C31.3704 485.22 32.037 484.287 32.037 481.354C32.037 479.087 31.5037 476.954 30.7037 476.554C30.037 476.154 29.3704 474.554 29.3704 472.954C29.3704 471.487 27.637 468.154 25.3704 465.62C21.7704 461.487 21.3704 460.287 21.3704 451.754C21.3704 443.487 21.9037 441.62 25.3704 436.554C27.5037 433.354 31.237 429.754 33.637 428.687C38.037 426.42 45.3704 425.754 45.3704 427.62C45.3704 428.287 47.7704 429.62 50.5704 430.554C53.5037 431.487 56.1704 433.087 56.5704 434.02C57.7704 437.22 60.5704 436.02 62.837 431.487C64.7037 427.754 65.7704 427.22 70.5704 426.82C78.9704 426.154 90.7037 432.687 90.7037 437.887C90.7037 438.954 91.3704 439.887 92.037 439.887C92.837 439.887 93.3704 440.82 93.3704 441.887C93.3704 442.954 94.437 445.62 95.9037 448.02C97.237 450.287 98.037 453.22 97.7704 454.687C97.3704 456.02 97.5037 459.354 97.9037 461.887C98.7037 466.02 99.237 466.554 103.104 466.554C105.904 466.42 108.97 465.087 112.037 462.554C116.304 458.82 117.37 458.554 127.637 458.554C133.637 458.554 138.97 457.887 139.37 457.22C139.77 456.42 141.904 455.887 144.037 455.887C146.17 455.887 148.304 456.42 148.704 457.22C150.037 459.22 155.77 458.82 159.504 456.287C162.704 454.154 163.237 454.287 167.504 456.554C171.237 458.554 172.304 458.687 174.037 457.22C175.77 455.754 176.704 455.754 179.37 457.22C183.104 459.22 185.37 458.02 182.97 455.62C182.037 454.687 181.37 452.687 181.37 451.087C181.37 449.354 180.837 447.62 180.037 447.22C179.37 446.82 178.704 444.687 178.704 442.554C178.704 438.954 177.637 435.354 174.437 428.42C172.97 425.354 173.77 411.087 176.037 396.554C176.837 391.354 177.77 384.02 178.17 380.02C178.704 376.02 180.037 370.954 181.37 368.554C182.704 366.287 184.17 362.287 184.704 359.754C185.237 357.22 187.904 352.82 190.57 349.887C196.304 343.754 200.037 338.154 200.037 335.487C200.037 332.687 205.237 322.554 206.704 322.554C208.704 322.554 208.437 295.487 206.437 293.487C205.237 292.287 204.837 286.287 205.237 271.887C205.504 255.487 206.037 250.954 208.17 246.687C209.637 243.62 210.704 238.554 210.704 234.82C210.704 229.22 210.17 228.02 206.704 225.487C204.57 223.754 202.704 221.354 202.704 220.154C202.704 216.82 196.57 204.687 193.37 201.887C191.904 200.554 190.704 198.82 190.704 198.02C190.704 197.22 189.77 194.687 188.57 192.554C186.17 188.154 185.904 172.154 188.037 170.02C188.837 169.22 189.37 167.354 189.37 165.62C189.37 162.154 191.37 158.154 195.237 153.62C196.704 151.887 197.504 150.154 197.104 149.754C196.57 149.354 198.97 146.554 202.17 143.487C205.37 140.42 208.037 136.954 208.037 135.62C208.037 134.287 208.97 133.22 210.037 133.22C211.237 133.22 212.57 132.154 212.97 130.82C213.504 129.62 214.17 128.287 214.57 127.887C216.304 126.42 221.37 115.487 221.37 113.354C221.37 112.02 222.57 109.887 224.17 108.42C225.637 107.087 226.57 104.954 226.304 103.62C225.904 102.42 226.437 100.687 227.37 99.8871C228.304 99.0871 229.104 96.1538 229.104 93.2204C229.237 90.0204 230.304 86.2871 231.904 84.0204C233.504 81.8871 234.704 79.0871 234.704 77.8871C234.704 73.2204 247.104 58.5538 250.97 58.5538C252.17 58.5538 253.637 57.8871 254.037 57.2204C255.104 55.4871 264.437 55.4871 266.037 57.0871C266.837 57.7538 269.77 58.5538 272.704 58.8204C276.97 59.0871 278.304 59.8871 279.77 62.8204C280.704 64.9538 282.437 66.5538 283.504 66.5538C284.437 66.5538 285.37 67.0871 285.37 67.8871C285.37 68.5538 287.637 70.6871 290.304 72.5538C295.237 75.8871 304.037 90.9538 304.037 96.1538C304.037 97.4871 304.704 98.5538 305.37 98.5538C306.17 98.5538 306.704 99.4871 306.704 100.554C306.704 101.754 307.904 103.887 309.37 105.487C311.637 108.02 312.037 110.287 312.037 120.687C312.037 127.487 312.57 133.487 313.37 133.887C314.17 134.287 314.704 136.154 314.704 138.02C314.704 141.22 316.57 142.287 318.037 139.887C318.437 139.087 319.904 138.554 321.237 138.554C322.57 138.554 324.704 137.354 326.037 135.887C327.37 134.42 330.17 133.22 332.304 133.22C334.304 133.22 336.037 132.687 336.037 132.02C336.037 131.354 338.037 130.554 340.437 130.154C345.37 129.22 356.304 127.087 362.037 125.887C364.304 125.354 367.237 124.42 368.704 123.754C370.704 122.82 372.57 122.954 375.37 124.42C378.97 126.287 379.37 126.287 380.304 124.154C380.837 122.954 381.237 120.02 381.237 117.62C381.37 115.354 381.904 113.087 382.437 112.687C384.304 111.62 384.304 87.8871 382.57 85.6204C381.37 84.2871 381.37 82.9538 382.57 80.4204C383.37 78.5538 384.037 73.8871 384.037 69.8871C384.037 65.8871 384.704 62.2871 385.37 61.8871C386.17 61.4871 386.704 59.7538 386.704 58.0204C386.704 54.6871 389.504 47.8871 391.104 47.8871C391.637 47.8871 392.037 46.6871 392.037 45.2204C392.037 43.7538 393.237 40.5538 394.704 37.8871C396.17 35.2204 397.37 31.8871 397.37 30.4204C397.37 28.8204 398.437 27.3538 399.904 26.9538C401.237 26.6871 403.237 24.6871 404.17 22.8204C406.437 18.4204 408.704 15.8871 410.57 15.8871C411.237 15.8871 412.704 14.2871 413.637 12.4204ZM456.037 15.4871C456.037 14.6871 454.437 13.0871 452.437 12.1538C448.037 10.1538 445.77 10.1538 444.704 11.8871C444.304 12.5538 440.837 13.2204 437.237 13.2204C432.704 13.2204 430.437 13.8871 429.904 15.0871C429.504 16.1538 427.37 17.4871 425.237 17.8871C422.837 18.4204 421.37 19.6204 421.37 20.9538C421.37 22.1538 420.57 24.8204 419.504 26.8204C416.57 32.4204 415.637 38.4204 417.37 40.5538C418.437 41.8871 418.437 43.7538 417.504 47.4871C415.637 53.8871 415.637 64.8204 417.37 65.8871C418.17 66.2871 418.704 68.4204 418.704 70.5538C418.704 72.6871 419.37 74.8204 420.037 75.2204C420.837 75.6204 421.37 78.6871 421.37 81.8871C421.37 85.0871 421.904 87.8871 422.437 88.1538C423.904 88.6871 425.637 97.2204 424.304 97.2204C423.637 97.2204 423.504 99.3538 423.77 101.887C424.037 104.42 424.837 106.554 425.504 106.554C426.17 106.554 426.704 107.754 426.704 109.087C426.704 111.62 429.104 113.22 432.837 113.22C434.037 113.22 434.704 111.754 434.704 108.554C434.704 106.02 435.904 101.887 437.37 99.2204C438.837 96.5538 440.037 93.3538 440.037 91.8871C440.037 90.5538 440.704 88.9538 441.37 88.5538C442.17 88.1538 442.704 86.5538 442.704 85.2204C442.704 83.8871 444.57 81.4871 446.704 79.8871C448.97 78.2871 450.704 75.8871 450.704 74.4204C450.704 73.0871 451.37 71.8871 452.037 71.8871C452.837 71.8871 453.37 70.9538 453.37 69.7538C453.37 68.6871 455.37 65.4871 457.904 62.8204L462.57 58.0204L465.237 61.3538C468.704 65.4871 468.704 66.0204 464.704 70.0204C462.837 71.8871 461.37 74.1538 461.37 75.2204C461.37 76.2871 460.837 77.2204 460.037 77.2204C459.37 77.2204 458.704 78.2871 458.704 79.6204C458.704 80.8204 457.504 82.6871 456.037 83.6204C454.57 84.5538 453.37 86.4204 453.37 87.8871C453.37 89.3538 452.704 90.5538 451.904 90.5538C450.97 90.5538 450.704 91.8871 450.97 93.7538C451.37 95.7538 450.97 97.3538 449.904 97.7538C447.37 98.6871 447.504 102.554 449.904 102.554C450.97 102.554 453.504 100.554 455.37 98.0204C459.104 93.0871 465.237 91.0871 469.504 93.2204C473.237 95.2204 472.57 99.3538 467.904 104.42C460.437 112.687 449.637 114.554 447.904 107.887C447.237 105.087 446.837 104.954 446.17 106.82C444.437 110.82 445.77 116.554 448.704 116.954C450.17 117.22 452.304 117.754 453.37 118.154C454.437 118.554 458.437 119.22 462.037 119.487C468.57 119.887 483.77 126.42 492.704 132.554C497.37 135.754 509.37 148.287 509.37 150.02C509.37 150.687 510.437 151.887 511.77 152.687C513.104 153.487 515.637 157.087 517.37 160.687C519.237 164.287 521.237 167.62 521.904 168.154C523.637 169.354 525.637 168.02 524.57 166.42C524.17 165.62 524.837 164.287 526.037 163.354C527.904 162.02 528.037 161.22 526.57 158.287C525.37 155.487 525.37 153.754 526.57 150.954C528.304 146.82 528.17 124.154 526.437 123.087C525.904 122.687 525.37 120.287 525.37 117.754C525.37 115.087 524.704 111.754 523.77 110.154C522.97 108.554 522.437 104.82 522.57 101.887C522.837 97.7538 522.17 95.8871 520.17 94.0204C518.57 92.5538 517.37 90.1538 517.37 88.5538C517.37 87.0871 516.837 85.2204 516.304 84.4204C515.637 83.7538 514.437 80.6871 513.37 77.6204C512.437 74.5538 509.904 70.4204 507.904 68.4204C505.77 66.4204 504.037 63.8871 504.037 62.9538C504.037 62.0204 503.637 61.2204 502.97 61.2204C501.904 61.2204 501.37 60.2871 496.037 49.7538C494.304 46.1538 492.304 42.9538 491.77 42.8204C491.237 42.5538 490.704 41.4871 490.704 40.4204C490.704 39.3538 489.637 38.0204 488.437 37.6204C485.504 36.5538 480.17 30.4204 480.037 28.1538C480.037 27.3538 478.837 26.5538 477.504 26.5538C476.037 26.5538 474.704 26.1538 474.437 25.4871C473.77 24.0204 465.904 19.8871 463.504 19.8871C462.304 19.8871 461.37 19.2204 461.37 18.5538C461.37 17.7538 460.17 17.2204 458.704 17.2204C457.237 17.2204 456.037 16.4204 456.037 15.4871ZM406.837 48.4204C407.504 48.0204 408.037 46.5538 408.037 45.0871C408.037 41.2204 406.17 42.0204 404.304 46.8204C403.37 49.2204 401.904 52.2871 401.237 53.4871C400.57 54.8204 400.037 57.3538 400.037 59.0871C400.037 60.9538 398.837 63.4871 397.504 64.8204C395.904 66.2871 394.704 69.6204 394.437 72.8204C394.037 76.0204 393.504 78.9538 392.97 79.4871C391.504 80.8204 391.904 87.2204 393.504 88.8204C394.57 89.8871 394.57 90.5538 393.504 91.0871C391.637 92.2871 391.504 119.354 393.37 120.554C397.237 122.954 392.97 130.42 387.77 130.554C386.437 130.554 384.837 131.754 384.17 133.087C382.704 135.754 378.57 136.554 360.037 138.02C352.437 138.554 346.17 140.42 344.037 142.554C343.637 142.954 341.904 143.887 340.037 144.687C330.704 148.687 323.237 152.687 322.304 154.154C321.77 155.087 320.437 155.487 319.37 155.087C318.304 154.687 316.704 155.62 315.77 157.087C314.837 158.687 313.37 159.887 312.57 159.887C311.637 159.887 309.104 161.62 306.704 163.887C304.304 166.02 300.97 167.887 299.237 167.887C297.237 167.887 296.037 168.687 296.037 169.887C296.037 171.087 294.97 173.22 293.504 174.687C292.349 175.906 291.75 176.538 291.097 176.599C290.394 176.665 289.628 176.066 288.037 174.82C284.97 172.42 284.97 171.887 286.437 166.687C288.17 161.087 296.037 151.887 299.237 151.887C301.504 151.887 302.304 119.354 300.17 117.887C299.37 117.487 298.704 115.62 298.704 113.887C298.704 110.82 297.77 108.02 293.904 99.2204C292.97 96.9538 289.637 92.6871 286.704 89.4871C283.77 86.2871 281.37 83.2204 281.37 82.5538C281.37 81.7538 280.437 81.2204 279.37 81.2204C276.97 81.2204 276.57 91.8871 278.97 94.2871C280.837 96.1538 280.57 130.554 278.57 132.42C277.904 133.22 277.37 135.754 277.37 138.02C277.37 140.42 276.837 142.82 276.037 143.22C275.37 143.62 274.704 146.554 274.704 149.62C274.704 152.82 273.637 157.087 272.037 159.62C270.57 162.02 269.37 165.087 269.37 166.554C269.37 167.887 268.837 169.487 268.037 169.887C267.37 170.287 266.704 171.887 266.704 173.354C266.704 174.687 266.17 175.887 265.37 175.887C264.704 175.887 264.037 176.82 264.037 177.887C264.037 178.954 261.637 182.287 258.704 185.22C255.77 188.154 253.37 190.954 253.37 191.354C253.37 193.354 244.57 202.554 242.704 202.554C241.637 202.554 239.637 204.154 238.437 206.154C237.237 208.287 234.97 211.354 233.504 213.087C231.904 214.82 230.704 217.087 230.704 217.887C230.704 218.82 229.237 220.554 227.37 221.754C224.704 223.487 224.037 225.087 224.037 229.22C224.037 232.02 223.37 234.82 222.57 235.354C221.637 235.887 221.37 238.287 221.77 241.487C222.304 245.22 221.904 246.954 220.57 247.487C219.104 248.02 218.704 251.754 218.704 265.354C218.704 275.354 218.037 283.754 217.237 285.754C216.037 288.42 216.037 289.62 217.37 291.22C219.504 293.754 219.237 310.287 217.104 312.82C216.037 314.154 216.037 315.087 217.104 316.154C219.637 318.687 218.97 327.22 216.037 330.954C214.57 332.82 213.37 334.82 213.37 335.487C213.37 336.02 212.17 338.02 210.704 339.887C209.237 341.754 208.037 344.287 208.037 345.487C208.037 346.82 206.837 349.087 205.37 350.554C203.904 352.02 202.704 353.754 202.704 354.287C202.704 354.82 200.304 357.754 197.37 360.554C194.437 363.354 192.037 366.82 192.037 368.154C192.037 369.354 190.837 372.554 189.37 375.22C187.77 378.02 186.704 382.42 186.704 385.887C186.704 389.087 186.17 392.154 185.37 392.554C183.77 393.487 183.504 423.887 185.104 423.887C186.704 423.887 189.37 432.154 189.37 436.954C189.37 439.22 190.437 443.087 191.77 445.487C193.237 447.887 194.704 452.554 195.237 455.887C195.516 458.211 195.989 461.377 196.386 464.03L196.386 464.031C196.558 465.184 196.716 466.239 196.837 467.087C197.37 470.02 199.237 475.087 201.237 478.42C205.237 485.487 207.104 489.354 209.504 495.887C210.437 498.42 212.57 502.42 214.304 504.82C215.904 507.087 217.37 509.62 217.37 510.287C217.37 510.954 218.304 512.287 219.37 513.22C220.437 514.154 221.37 515.754 221.37 516.82C221.37 519.087 224.57 522.554 226.704 522.554C227.637 522.554 229.504 524.154 231.104 526.02C232.57 527.887 236.304 531.22 239.237 533.354C242.304 535.62 248.704 541.22 253.504 545.887C258.437 550.687 263.37 554.554 264.57 554.554C265.637 554.554 268.704 555.754 271.37 557.22C274.037 558.687 276.97 559.887 278.037 559.887C279.237 559.887 281.237 560.42 282.704 561.22C283.437 561.62 284.403 562.087 285.369 562.553C286.336 563.02 287.304 563.487 288.037 563.887C289.504 564.687 292.17 565.22 293.904 565.22C295.77 565.22 297.637 565.754 298.037 566.554C299.237 568.42 313.77 568.287 315.77 566.287C316.97 565.087 318.57 565.22 322.437 566.42C325.504 567.487 330.437 567.887 334.837 567.354C353.77 565.354 356.837 564.954 357.904 563.754C358.704 563.087 360.837 562.554 362.837 562.554C364.837 562.554 366.97 561.887 367.37 561.22C367.77 560.42 370.837 559.887 373.904 559.887C377.104 559.887 381.237 559.087 383.104 558.154C384.97 557.087 393.504 549.354 401.904 540.687C413.904 528.42 418.037 525.087 420.304 525.487C422.304 525.754 423.504 526.954 423.77 528.82C424.17 531.087 419.504 536.42 403.104 552.554L382.037 573.22H375.77C372.304 573.22 369.104 573.754 368.704 574.554C368.304 575.22 366.17 575.887 364.037 575.887C361.904 575.887 359.77 576.42 359.37 577.22C358.97 577.887 356.57 578.554 354.037 578.554C351.504 578.554 349.104 579.087 348.704 579.887C347.504 581.754 318.304 581.62 316.304 579.62C315.237 578.554 314.304 578.554 312.837 579.754C309.104 582.82 290.304 580.154 283.77 575.754C281.904 574.287 279.37 573.22 278.037 573.22C276.837 573.22 273.37 572.02 270.437 570.554C267.37 569.087 263.37 567.887 261.504 567.887C259.37 567.887 255.77 565.887 252.17 562.554C248.97 559.62 245.904 557.22 245.237 557.22C243.77 557.22 234.837 547.62 234.704 545.887C234.57 545.087 229.237 538.82 222.704 531.887C216.037 524.954 210.704 518.287 210.704 517.087C210.704 515.887 209.504 513.887 208.037 512.554C206.57 511.22 205.37 509.354 205.37 508.287C205.37 507.354 204.837 506.554 204.037 506.554C203.37 506.554 202.704 505.487 202.704 504.154C202.704 502.687 201.504 500.554 200.037 499.22C198.437 497.754 197.37 495.087 197.37 492.287C197.37 489.887 196.837 487.887 196.037 487.887C195.37 487.887 194.704 486.82 194.704 485.487C194.704 484.02 193.504 481.887 192.037 480.554C190.57 479.22 189.37 476.82 189.37 475.22C189.37 471.62 186.97 469.22 183.237 469.22C181.504 469.22 179.77 468.554 179.37 467.887C178.97 467.087 174.437 466.554 169.37 466.554C164.304 466.554 159.77 467.087 159.37 467.887C158.97 468.554 156.17 469.22 153.37 469.22C150.57 469.22 147.77 469.754 147.37 470.554C146.97 471.22 143.37 471.887 139.37 471.887C135.37 471.887 131.77 471.22 131.37 470.554C130.037 468.287 121.77 469.087 116.704 471.887C114.037 473.354 111.237 474.554 110.304 474.554C106.704 474.554 101.37 478.02 101.37 480.287C101.37 481.754 102.704 484.554 104.17 486.82C106.304 489.754 106.704 491.087 105.504 492.287C104.704 493.087 104.037 495.887 104.037 498.554C104.037 501.087 102.837 505.087 101.504 507.354C100.037 509.754 98.7037 512.954 98.437 514.554C98.3037 516.287 97.1037 518.02 96.037 518.554L96.0361 518.554C94.9684 519.088 92.3027 520.421 90.037 521.354C84.037 524.154 82.037 526.42 83.9037 528.287C84.7037 529.087 85.3704 531.487 85.3704 533.62C85.3704 537.887 96.1704 555.22 100.304 557.354C101.637 558.154 102.437 559.22 102.037 559.887C101.637 560.554 105.504 565.487 110.704 570.82C115.77 576.154 120.037 580.954 120.037 581.487C120.037 582.02 126.437 588.82 134.17 596.82C141.904 604.687 148.97 612.687 150.037 614.554C150.97 616.42 155.237 620.954 159.504 624.554C163.77 628.287 168.57 632.687 170.304 634.554C175.77 640.287 176.437 640.82 187.77 649.754C197.904 657.887 199.237 658.554 205.37 658.554C208.97 658.554 212.304 659.087 212.704 659.887C213.104 660.554 215.504 661.22 218.037 661.22C220.57 661.22 222.97 661.754 223.37 662.554C223.77 663.354 226.17 663.887 228.704 663.887C231.237 663.887 233.637 664.42 234.037 665.22C234.437 665.887 236.037 666.554 237.504 666.554C238.837 666.554 240.037 667.087 240.037 667.887C240.037 668.554 241.504 669.22 243.237 669.22C245.104 669.22 246.97 669.754 247.37 670.554C247.77 671.22 249.237 671.887 250.57 671.887C253.77 671.887 272.437 681.487 277.504 685.887C284.704 691.887 285.37 690.954 285.37 674.154C285.37 665.22 284.837 658.554 283.904 657.62C283.104 656.82 282.304 653.354 282.17 649.754C282.037 646.154 281.237 642.02 280.437 640.554C277.237 634.554 282.837 632.287 287.77 637.62C289.37 639.354 290.704 641.754 290.704 642.954C290.704 644.287 291.237 646.287 291.904 647.62C292.505 648.703 293.432 650.872 294.196 652.656C294.278 652.849 294.359 653.038 294.437 653.22C294.925 654.586 295.769 656.664 296.5 658.465C296.769 659.126 297.022 659.75 297.237 660.287C298.037 662.287 298.704 665.487 298.704 667.22C298.704 668.954 299.37 670.82 300.037 671.22C301.637 672.154 301.904 677.22 300.304 677.22C298.837 677.22 298.704 701.087 300.17 701.887C300.837 702.42 301.37 704.154 301.37 706.02C301.37 707.754 301.904 710.287 302.57 711.62C305.637 717.487 306.57 721.087 307.104 727.22C308.304 741.087 309.637 748.554 310.837 749.887C312.57 751.62 312.304 756.42 310.437 758.287C309.104 759.62 309.104 760.554 310.437 762.554C311.237 764.02 312.037 768.154 312.037 771.754C312.037 775.487 312.704 778.82 313.37 779.22C314.17 779.62 314.704 782.554 314.704 785.62C314.704 789.087 315.77 792.42 317.37 794.554C318.837 796.42 320.037 799.22 320.037 800.82C320.037 802.42 320.57 804.02 321.237 804.42C321.77 804.82 323.104 807.887 324.037 811.22C324.97 814.554 326.304 817.62 326.837 818.02C327.504 818.42 328.037 820.42 328.037 822.554C328.037 824.687 328.57 826.687 329.237 827.087C329.904 827.487 330.437 830.82 330.437 834.42C330.57 838.02 331.237 842.287 331.904 843.754C332.216 844.378 332.609 845.123 333.012 845.887C333.642 847.083 334.297 848.326 334.704 849.22C335.504 850.687 336.037 854.554 336.037 857.754C336.037 861.087 336.704 864.154 337.37 864.554C338.17 864.954 338.704 866.82 338.704 868.687C338.704 870.42 339.237 871.887 340.037 871.887C340.704 871.887 341.237 867.487 341.104 861.754C341.104 855.887 341.637 851.087 342.57 850.154C343.37 849.354 344.037 847.754 344.037 846.554C344.037 845.354 345.237 843.22 346.704 841.887C348.437 840.287 349.37 837.754 349.37 834.554C349.37 831.887 349.77 829.22 350.304 828.687C350.837 828.154 351.37 826.687 351.37 825.62C351.37 824.42 352.037 823.22 352.837 822.954C356.17 821.887 356.17 839.487 352.97 843.62C352.17 844.687 351.637 851.087 351.77 858.687C352.037 869.487 351.77 871.887 350.17 871.887C346.837 871.887 341.37 878.02 341.37 881.754C341.37 883.62 342.037 885.22 342.704 885.22C343.504 885.22 344.037 884.42 344.037 883.354C344.037 881.22 348.57 879.22 350.704 880.554C351.37 880.954 352.037 883.754 352.037 886.554C352.037 889.354 352.57 892.02 353.237 892.42C353.904 892.82 354.437 896.287 354.437 900.02C354.57 903.887 355.237 907.62 355.904 908.287C356.704 909.087 357.37 911.354 357.37 913.354C357.37 915.354 358.037 917.487 358.704 917.887C359.504 918.287 360.037 920.02 360.037 921.754C360.037 923.354 361.637 926.154 363.504 928.02C365.37 929.754 367.904 933.354 369.104 935.887C370.304 938.42 374.57 943.887 378.437 948.02C385.77 955.754 389.37 961.354 389.37 964.82C389.37 965.887 391.504 968.954 394.037 971.62C396.57 974.287 399.237 978.42 399.904 980.82C400.57 983.087 402.704 987.087 404.57 989.62C406.437 992.154 408.037 994.687 408.037 995.487C408.037 996.154 409.237 997.887 410.704 999.22C412.17 1000.55 413.37 1002.15 413.37 1002.82C413.37 1004.15 419.77 1012.42 425.77 1018.82C427.77 1021.09 429.37 1023.49 429.37 1024.42C429.37 1026.15 440.17 1037.22 441.904 1037.22C444.037 1037.22 455.77 1046.95 457.504 1050.02C458.437 1051.75 460.037 1053.22 460.97 1053.22C462.837 1053.22 470.704 1060.95 470.704 1062.69C470.704 1064.55 484.037 1077.22 485.904 1077.22C486.97 1077.22 488.97 1079.35 490.57 1081.89C492.037 1084.55 494.437 1087.09 495.637 1087.49C496.97 1088.02 499.104 1089.35 500.437 1090.55C501.637 1091.75 504.437 1093.62 506.437 1094.69C508.437 1095.62 511.77 1097.89 513.77 1099.49C515.77 1101.09 519.504 1103.49 522.037 1104.69C524.57 1105.89 527.504 1108.42 528.437 1110.42C529.37 1112.42 531.37 1114.02 533.237 1114.29C540.037 1115.35 554.704 1125.09 554.704 1128.82C554.704 1129.89 556.304 1130.55 558.57 1130.55C560.57 1130.55 563.77 1131.62 565.504 1132.95C570.97 1136.95 574.57 1138.55 577.637 1138.55C579.37 1138.55 581.504 1139.75 582.437 1141.22C583.37 1142.69 585.237 1143.89 586.704 1143.89C588.17 1143.89 591.237 1144.95 593.637 1146.42C598.57 1149.09 603.904 1150.42 614.437 1151.49C618.17 1151.89 621.37 1152.69 621.37 1153.22C621.37 1153.89 624.17 1154.69 627.77 1155.22C631.237 1155.62 635.904 1156.82 638.037 1157.89C640.304 1158.82 644.437 1160.42 647.37 1161.35C650.304 1162.15 653.77 1163.35 654.97 1164.02C656.304 1164.69 658.57 1165.22 659.904 1165.22C661.37 1165.22 662.97 1165.75 663.37 1166.55C663.77 1167.22 667.77 1167.89 672.037 1167.89C676.304 1167.89 680.304 1168.42 680.704 1169.22C681.104 1169.89 683.77 1170.55 686.57 1170.55C689.237 1170.55 692.304 1171.35 693.104 1172.15C694.437 1173.49 695.37 1173.49 697.37 1172.15C698.837 1171.22 700.17 1171.09 700.704 1171.89C701.104 1172.55 711.904 1172.82 726.437 1172.55C768.304 1171.62 781.237 1170.95 783.104 1169.49C784.837 1168.02 794.704 1168.29 797.37 1169.89C798.17 1170.42 799.637 1170.15 800.437 1169.35C801.237 1168.55 805.104 1167.89 808.837 1167.89C812.704 1167.89 816.304 1167.22 816.704 1166.55C817.104 1165.75 820.704 1165.22 824.437 1165.22C828.837 1165.22 832.837 1164.29 835.504 1162.69C837.637 1161.35 841.904 1159.89 844.837 1159.35C858.437 1157.09 866.437 1155.75 871.37 1155.09C874.304 1154.69 877.237 1153.75 878.037 1153.09C878.704 1152.42 881.77 1151.89 884.837 1151.89C888.037 1151.89 890.97 1151.22 891.37 1150.55C891.77 1149.75 894.17 1149.22 896.704 1149.22C899.237 1149.22 901.637 1148.69 902.037 1147.89C902.437 1147.22 904.837 1146.55 907.237 1146.55C909.904 1146.55 912.57 1145.49 914.037 1143.89C915.37 1142.42 917.37 1141.22 918.57 1141.22C919.77 1141.22 922.17 1140.02 924.037 1138.55C925.904 1137.09 928.304 1135.89 929.37 1135.89C930.57 1135.89 932.037 1135.35 932.704 1134.69C933.504 1134.02 936.304 1132.82 938.97 1131.89C941.77 1131.09 944.037 1129.75 944.037 1129.09C944.037 1128.42 945.104 1127.89 946.437 1127.89C947.77 1127.89 951.237 1125.49 954.037 1122.55C956.837 1119.62 960.437 1117.22 961.77 1117.22C963.104 1117.22 969.504 1113.62 975.904 1109.22C982.304 1104.82 988.57 1101.22 989.77 1101.22C991.104 1101.22 992.037 1100.69 992.037 1100.02C992.037 1099.35 994.037 1097.89 996.437 1096.82C998.704 1095.62 1004.04 1091.35 1008.04 1087.35C1012.04 1083.22 1016.04 1079.89 1016.97 1079.89C1017.9 1079.89 1018.7 1079.49 1018.7 1078.82C1018.7 1078.29 1022.3 1075.22 1026.7 1072.15C1030.97 1068.95 1034.97 1065.22 1035.37 1063.75C1035.9 1062.42 1036.97 1061.22 1038.04 1061.22C1038.97 1061.22 1041.37 1059.49 1043.1 1057.22C1044.97 1055.09 1047.37 1053.22 1048.3 1053.22C1050.84 1053.22 1053.37 1050.55 1053.37 1048.02C1053.37 1046.82 1057.77 1041.75 1062.97 1036.55C1068.3 1031.49 1073.77 1025.89 1074.97 1024.15C1077.77 1020.55 1080.04 1020.29 1080.04 1023.62C1080.04 1026.95 1074.7 1037.22 1070.3 1042.42C1068.3 1044.82 1066.7 1047.62 1066.7 1048.69C1066.7 1050.82 1071.5 1051.22 1072.7 1049.22C1073.77 1047.49 1079.5 1047.49 1082.84 1049.35C1084.97 1050.42 1086.84 1050.15 1091.5 1048.02C1094.7 1046.42 1099.1 1045.22 1101.24 1045.22C1103.5 1045.22 1105.64 1044.69 1106.04 1043.89C1106.44 1043.22 1108.57 1042.55 1110.7 1042.55C1112.84 1042.55 1114.97 1041.89 1115.37 1041.22C1115.77 1040.42 1117.37 1039.89 1118.84 1039.89C1121.1 1039.89 1126.3 1037.62 1128.04 1035.89C1128.44 1035.49 1130.17 1034.55 1132.04 1033.75C1140.44 1030.15 1148.84 1025.89 1149.64 1024.69C1150.04 1024.02 1151.5 1023.22 1152.57 1023.09C1153.77 1022.95 1157.77 1021.22 1161.64 1019.35C1165.5 1017.49 1169.1 1015.89 1169.77 1015.89C1171.9 1015.89 1184.04 1009.89 1184.04 1008.95C1184.04 1008.29 1185.24 1007.89 1186.57 1007.89C1188.04 1007.89 1189.64 1007.22 1190.04 1006.55C1190.44 1005.75 1192.84 1005.22 1195.37 1005.22C1197.9 1005.22 1200.3 1004.55 1200.7 1003.89C1201.1 1003.09 1202.97 1002.55 1204.84 1002.55C1206.57 1002.55 1208.04 1001.89 1208.04 1001.22C1208.04 1000.42 1208.84 999.887 1209.77 999.887C1213.24 999.887 1219.9 995.754 1223.9 991.22C1226.17 988.687 1228.7 986.554 1229.77 986.554C1232.57 986.554 1234.7 983.62 1234.7 980.02C1234.7 978.02 1235.9 975.087 1237.37 973.22C1238.84 971.354 1240.04 968.554 1240.04 966.954C1240.04 965.354 1240.7 963.62 1241.37 963.22C1242.04 962.82 1242.7 961.087 1242.7 959.354C1242.7 957.754 1243.37 955.754 1244.3 954.82C1245.5 953.62 1245.5 952.82 1244.44 951.754C1242.97 950.287 1244.97 943.887 1247.1 943.887C1247.64 943.887 1248.04 940.687 1248.04 936.687C1248.04 932.687 1248.7 928.954 1249.37 928.554C1251.24 927.487 1251.1 920.82 1249.1 918.82C1248.3 918.02 1247.64 915.487 1247.77 913.354C1247.77 911.087 1247.24 908.954 1246.57 908.554C1245.9 908.02 1245.37 905.487 1245.37 902.82C1245.37 898.02 1242.84 888.82 1240.97 887.087C1240.44 886.554 1240.04 883.22 1240.04 879.62C1240.04 872.687 1238.7 869.62 1233.1 863.22C1230.97 861.087 1229.37 858.687 1229.37 858.154C1229.37 857.62 1222.84 850.42 1214.7 842.154C1206.7 834.02 1200.04 826.82 1200.04 826.154C1200.04 825.487 1198.17 822.42 1196.04 819.22C1193.9 816.02 1192.04 812.82 1192.04 812.287C1192.04 811.62 1190.3 809.354 1188.04 807.22C1185.9 805.087 1184.04 802.154 1184.04 800.554C1184.04 798.954 1182.57 796.287 1180.84 794.687C1178.3 792.287 1177.77 790.687 1178.3 787.22C1178.7 784.687 1178.44 782.554 1177.5 782.02C1176.7 781.487 1176.04 779.887 1176.04 778.42C1176.04 776.954 1175.1 775.487 1174.04 775.087C1172.97 774.687 1171.77 772.954 1171.24 771.487C1170.7 769.887 1168.04 765.087 1165.24 760.954C1162.3 756.82 1160.04 751.887 1160.04 750.02C1160.04 748.02 1159.5 746.554 1158.7 746.554C1158.04 746.554 1157.37 745.487 1157.37 744.287C1157.37 743.087 1154.97 739.754 1152.04 737.087C1149.1 734.287 1146.7 730.954 1146.7 729.62C1146.7 728.287 1144.97 725.087 1142.97 722.554C1140.84 720.02 1138.7 716.82 1138.3 715.487C1137.77 714.02 1136.17 712.687 1134.7 712.287C1131.37 711.354 1128.04 705.487 1128.04 700.287C1127.9 698.154 1126.3 694.554 1124.04 691.887C1121.77 689.354 1120.04 686.287 1120.04 685.087C1120.04 683.887 1118.84 681.887 1117.37 680.554C1115.9 679.22 1114.7 677.354 1114.7 676.554C1114.7 675.62 1113.5 674.554 1112.04 674.154C1110.3 673.754 1109.37 672.287 1109.37 670.02C1109.37 667.887 1108.17 665.887 1106.04 664.42C1104.17 663.22 1102.7 661.62 1102.7 660.82C1102.7 660.154 1100.57 656.954 1098.04 653.754C1095.5 650.687 1093.37 647.754 1093.37 647.22C1093.37 646.82 1091.64 644.82 1089.37 642.954C1087.24 641.22 1085.37 638.554 1085.37 637.087C1085.37 635.754 1084.84 634.554 1084.04 634.554C1083.37 634.554 1082.7 633.487 1082.7 632.154C1082.7 630.82 1080.3 627.354 1077.37 624.554C1074.44 621.754 1072.04 618.687 1072.04 617.754C1072.04 616.954 1069.64 614.554 1066.7 612.554C1063.77 610.554 1061.37 608.02 1061.37 606.954C1061.37 606.02 1060.44 604.82 1059.37 604.287C1058.17 603.887 1056.3 601.754 1055.24 599.487C1054.04 597.22 1051.64 593.887 1049.77 592.02C1048.04 590.154 1045.9 587.22 1045.24 585.487C1044.57 583.887 1042.97 582.154 1041.77 581.62C1038.44 580.554 1029.37 571.754 1029.37 569.62C1029.37 568.687 1028.57 567.887 1027.77 567.887C1026.84 567.887 1024.17 565.887 1021.77 563.487C1019.37 561.22 1014.04 555.754 1009.9 551.487C1005.77 547.354 1001.77 543.887 1000.84 543.887C1000.04 543.887 997.504 542.02 995.104 539.887C992.704 537.62 990.304 535.887 989.637 535.887C989.104 535.887 983.77 531.087 977.904 525.22C972.17 519.354 966.437 514.554 965.37 514.554C964.304 514.554 962.57 513.354 961.637 511.887C960.704 510.42 959.237 509.22 958.17 509.22C957.237 509.22 955.37 508.02 954.037 506.554C952.704 505.087 950.57 503.887 949.37 503.887C948.17 503.887 943.637 502.02 939.37 499.887C935.104 497.62 930.437 495.887 929.104 495.887C926.17 495.887 918.304 491.487 912.17 486.42C909.504 484.287 906.17 482.554 904.57 482.554C902.97 482.554 898.97 481.22 895.77 479.754C892.704 478.154 888.57 476.287 886.704 475.487C884.837 474.82 882.304 473.754 881.104 473.087C879.77 472.42 877.904 471.887 876.97 471.887C874.17 471.887 867.37 468.154 864.704 465.22C863.237 463.62 860.304 461.487 858.037 460.42C855.637 459.354 851.237 455.487 848.17 451.887C844.97 448.154 841.77 445.22 840.837 445.22C838.57 445.22 829.37 436.287 829.37 434.154C829.37 433.22 826.037 429.22 821.904 425.22C817.77 421.22 813.237 415.487 811.904 412.554C810.57 409.62 808.037 405.754 806.17 403.887C804.17 402.154 802.704 399.754 802.704 398.42C802.704 397.087 802.17 395.62 801.37 395.22C800.704 394.82 800.037 393.22 800.037 391.754C800.037 390.42 799.504 389.22 798.704 389.22C798.037 389.22 797.37 388.02 797.37 386.554C797.37 384.687 796.437 383.887 794.57 383.887C792.304 383.887 792.037 383.487 793.237 382.02C794.97 379.887 793.637 376.554 789.104 371.354C787.77 369.887 786.704 367.62 786.704 366.42C786.704 365.087 786.17 363.62 785.37 363.22C784.57 362.687 784.037 355.62 784.037 346.42C784.037 336.687 783.504 330.554 782.704 330.554C782.037 330.554 781.37 329.354 781.37 327.887C781.37 326.554 780.704 323.887 779.904 322.02C778.704 319.487 778.704 317.754 780.17 314.42C781.504 311.087 781.504 309.887 780.304 309.487C779.37 309.22 778.704 306.154 778.704 301.754C778.704 296.954 778.17 294.287 776.97 293.754C775.77 293.354 775.37 291.62 775.77 289.22C776.17 286.82 775.77 285.22 774.837 285.22C774.037 285.22 773.37 284.154 773.37 282.82C773.37 281.487 772.837 279.887 772.037 279.087C771.37 278.42 770.704 274.954 770.57 271.487C770.437 268.02 769.77 264.82 769.104 264.42C768.57 264.02 768.037 262.154 768.037 260.154C768.037 258.02 766.97 255.887 765.37 254.82C763.904 253.887 762.704 252.287 762.704 251.087C762.704 248.82 746.704 232.02 744.57 231.754C743.904 231.754 741.504 229.22 739.37 226.154C737.104 223.087 733.904 219.887 732.17 219.087C730.437 218.154 728.437 216.154 727.504 214.42C726.704 212.687 724.57 211.087 722.97 210.82C721.37 210.554 720.037 209.754 720.037 209.087C720.037 208.42 719.237 207.887 718.17 207.887C717.104 207.887 713.637 205.22 710.437 201.887C704.837 195.887 698.704 191.887 695.104 191.887C694.17 191.887 693.37 190.687 693.37 189.22C693.37 187.754 692.837 186.554 692.037 186.554C691.37 186.554 690.704 185.354 690.704 183.887C690.704 182.42 689.504 180.554 688.037 179.62C686.57 178.687 685.37 177.354 685.37 176.687C685.37 176.02 684.437 174.287 683.237 173.087C681.637 171.354 680.437 170.954 678.704 171.887C675.77 173.487 666.704 182.42 666.704 183.754C666.704 186.554 661.104 189.487 655.37 189.487C652.037 189.62 648.97 190.154 648.57 190.82C648.17 191.354 644.704 191.887 640.97 191.887C635.77 191.887 632.704 191.087 629.104 188.554C626.437 186.687 623.637 185.22 623.104 185.22C622.57 185.22 621.104 187.22 620.17 189.487C617.77 194.82 615.504 197.22 612.97 197.22C610.437 197.22 608.97 199.22 606.837 205.887C605.904 208.82 603.904 212.554 602.437 214.154C600.97 215.754 600.17 217.62 600.704 218.42C601.104 219.22 600.57 220.287 599.504 220.687C597.904 221.354 597.37 223.354 597.37 228.554C597.37 232.554 596.837 236.02 596.17 236.42C593.904 237.887 593.637 301.62 595.904 304.42C596.97 305.62 597.37 309.754 597.104 315.354C596.837 321.62 597.237 324.554 598.437 324.954C599.37 325.22 600.037 328.154 600.037 332.554C600.037 336.554 600.704 340.154 601.37 340.554C602.17 340.954 602.704 344.287 602.704 347.887C602.704 351.487 603.37 354.82 604.17 355.22C604.97 355.754 605.237 356.82 604.97 357.754C603.77 360.82 606.304 379.487 608.57 383.887C609.77 386.287 610.704 390.287 610.704 392.687C610.704 395.087 611.37 397.487 612.037 397.887C612.837 398.287 612.97 400.154 612.57 401.887C612.17 403.754 612.704 406.954 614.037 409.487C617.104 415.487 616.97 453.487 613.904 459.754C612.704 462.02 611.37 463.887 610.704 463.887C608.304 463.887 605.37 454.82 604.704 444.554C602.837 419.887 602.437 416.554 601.237 415.754C600.57 415.354 600.037 408.02 599.904 399.487C599.904 390.954 599.37 383.887 598.704 383.887C597.104 383.887 594.57 371.487 592.57 354.554C592.037 349.354 589.637 342.954 585.237 334.287C584.704 333.087 584.037 326.287 583.77 319.22C583.637 312.154 582.97 306.02 582.437 305.754C580.97 304.82 581.104 267.087 582.57 264.154C586.57 256.154 587.77 245.62 585.37 237.487C584.037 232.687 575.104 223.354 567.904 219.354C565.37 218.02 561.904 215.487 560.037 214.02C558.17 212.42 555.104 210.287 553.104 209.22C550.97 208.287 549.37 206.954 549.37 206.287C549.37 205.754 548.57 205.22 547.637 205.22C544.704 205.22 537.237 201.087 536.437 199.087C536.037 198.02 534.704 197.22 533.37 197.22C532.037 197.22 530.704 196.287 530.17 195.22C529.77 194.154 527.904 192.554 526.037 191.62C524.17 190.82 522.704 189.62 522.704 188.954C522.704 188.42 520.97 186.154 518.704 184.154C516.57 182.02 514.704 179.22 514.704 178.02C514.704 176.82 514.17 175.887 513.37 175.887C512.704 175.887 512.037 174.82 512.037 173.487C512.037 172.154 509.637 168.954 506.704 166.154C503.77 163.487 501.37 160.82 501.37 160.154C501.37 159.62 498.437 156.154 494.704 152.687C491.104 149.22 488.037 145.754 488.037 145.087C488.037 144.42 486.97 143.887 485.637 143.887C482.97 143.887 477.37 139.22 477.37 137.22C477.37 136.42 476.304 135.887 474.97 135.887C473.504 135.887 471.37 134.687 470.037 133.22C468.704 131.754 466.17 130.554 464.437 130.554C462.837 130.554 461.37 130.02 461.37 129.487C461.37 128.954 458.97 128.42 456.037 128.287C453.237 128.154 449.637 127.354 448.037 126.554C446.304 125.62 445.37 125.62 445.37 126.554C445.37 127.22 444.17 127.887 442.704 127.887C441.237 127.887 440.037 127.22 440.037 126.554C440.037 124.687 436.57 124.82 433.37 126.82C431.104 128.287 430.037 127.754 424.037 121.887C420.437 118.287 416.97 114.154 416.57 112.554C416.037 111.087 414.837 108.82 413.77 107.62C412.704 106.42 412.17 104.82 412.57 104.02C413.104 103.22 412.97 101.62 412.304 100.287C409.77 95.3538 408.037 88.1538 408.037 82.8204C408.037 79.7538 407.37 77.2204 406.704 77.2204C404.97 77.2204 405.237 49.4871 406.837 48.4204ZM261.37 76.1538C261.37 75.3538 260.97 74.4204 260.437 74.1538C259.77 73.7538 257.637 73.2204 255.37 72.6871C251.904 72.0204 251.104 72.4204 249.77 75.4871C248.837 77.4871 248.037 79.7538 248.037 80.4204C248.037 81.2204 246.837 83.3538 245.37 85.2204C243.637 87.4871 242.704 90.6871 242.704 95.2204C242.704 99.7538 241.77 102.954 240.037 105.22C238.57 107.087 237.37 109.354 237.37 110.154C237.37 111.087 236.837 111.887 236.037 111.887C235.37 111.887 234.704 113.62 234.704 115.887C234.704 118.02 234.17 119.887 233.37 119.887C232.704 119.887 232.037 121.087 232.037 122.554C232.037 124.02 231.504 125.22 230.704 125.22C230.037 125.22 229.37 126.154 229.37 127.22C229.37 128.42 225.77 132.954 221.37 137.487C217.104 142.02 213.237 146.42 212.837 147.487C212.437 148.42 211.237 149.22 210.037 149.22C208.97 149.22 208.037 150.154 208.037 151.354C208.037 152.554 206.304 155.354 204.037 157.487C200.17 161.087 198.704 167.354 200.97 169.754C202.704 171.487 202.704 180.42 201.104 183.754C199.637 186.42 199.904 187.22 203.104 190.02C205.104 191.754 206.304 193.887 205.904 194.954C205.504 196.02 206.17 197.22 207.37 197.754C208.57 198.154 209.104 199.22 208.704 200.02C208.17 200.82 208.97 202.287 210.57 203.354C212.17 204.42 213.37 206.42 213.37 207.754C213.37 209.087 214.304 210.954 215.37 211.887C217.637 213.754 221.37 212.82 221.37 210.287C221.37 209.354 222.97 206.954 225.104 205.087C227.104 203.087 229.904 199.487 231.237 196.954C232.837 194.02 235.504 191.487 238.304 190.42C242.437 188.82 242.837 188.287 242.17 184.554C241.637 182.154 242.17 178.954 243.37 176.687C245.504 172.554 246.037 160.554 244.17 159.354C241.77 157.887 237.37 146.42 237.37 141.887C237.37 136.154 239.637 134.954 245.37 137.354C248.037 138.687 249.104 139.887 248.704 141.354C248.17 142.82 248.97 143.754 250.704 144.287C252.97 144.82 253.37 146.02 253.37 152.82C253.37 160.02 255.504 167.887 257.504 167.887C257.904 167.887 258.437 163.62 258.437 158.287C258.57 153.087 259.237 148.154 260.037 147.354C260.704 146.687 261.37 144.82 261.37 143.22C261.37 141.62 261.904 139.887 262.57 139.087C264.57 136.82 266.97 118.42 265.37 116.554C264.304 115.22 264.304 114.02 265.637 112.02C266.97 109.754 266.97 108.687 265.637 106.554C264.304 104.42 264.304 103.354 265.637 101.22C266.97 99.0871 266.97 98.0204 265.637 95.8871C263.637 92.5538 263.504 87.6204 265.637 85.4871C266.837 84.2871 266.57 83.2204 264.304 80.8204C262.704 79.0871 261.37 77.0871 261.37 76.1538ZM657.237 132.82C659.504 130.554 659.237 105.487 656.837 103.087C654.304 100.687 652.837 100.687 653.904 103.22C654.304 104.42 653.904 105.22 652.837 105.22C651.77 105.22 650.704 106.154 650.17 107.22C649.77 108.287 648.437 109.22 647.237 109.22C645.904 109.22 645.37 109.887 645.77 111.087C646.17 112.287 645.237 113.887 643.237 115.087C639.77 117.487 638.837 123.487 641.504 126.154C642.704 127.354 642.704 128.82 641.37 131.754C640.437 134.02 639.237 135.887 638.57 135.887C637.904 135.887 637.37 137.62 637.37 139.754C637.37 145.22 634.704 146.687 624.97 146.82C618.17 146.954 615.637 146.42 612.17 144.02C609.904 142.42 608.037 140.42 608.037 139.754C608.037 139.087 606.57 138.554 604.837 138.554C602.97 138.554 601.104 137.887 600.704 137.22C600.304 136.42 598.97 135.887 597.77 135.887C595.77 135.887 591.237 130.954 588.704 125.887C587.637 123.887 585.77 123.087 581.37 122.954C575.237 122.554 568.704 125.62 571.37 127.62C572.17 128.154 573.637 130.287 574.704 132.287C575.904 134.82 577.37 135.887 578.97 135.487C580.304 135.087 581.37 135.487 581.37 136.42C581.37 137.354 583.504 138.954 586.17 139.887C588.704 140.954 591.904 143.487 593.104 145.487C594.304 147.487 596.304 149.22 597.637 149.22C598.97 149.22 600.704 150.42 601.637 151.887C602.57 153.354 604.037 154.554 604.837 154.554C605.637 154.554 608.17 156.287 610.437 158.554C612.837 160.687 615.504 162.554 616.57 162.554C617.637 162.554 619.37 163.754 620.437 165.22C621.504 166.687 625.637 170.82 629.904 174.554C636.704 180.554 637.904 181.087 642.97 180.554C645.904 180.287 649.104 179.354 649.77 178.687C650.57 177.887 652.304 177.22 653.637 177.22C654.97 177.22 656.037 176.554 656.037 175.754C656.037 173.887 658.437 171.62 663.104 169.354C665.104 168.287 666.704 166.42 666.704 165.22C666.704 164.02 668.304 162.287 670.437 161.354C671.471 160.802 672.684 160.215 673.78 159.684C674.803 159.189 675.724 158.742 676.304 158.42C677.637 157.754 679.504 157.22 680.704 157.22C681.77 157.22 684.704 156.02 687.37 154.554C690.037 153.087 694.304 151.887 696.837 151.887C699.504 151.887 703.37 150.687 705.504 149.087C708.704 146.82 709.37 145.354 709.37 141.087V135.887H702.304C695.637 135.887 688.037 138.154 688.037 140.154C688.037 141.354 678.837 146.554 676.57 146.554C675.504 146.554 674.704 147.087 674.704 147.887C674.704 150.554 669.104 149.22 663.237 145.22C657.237 140.954 654.57 135.487 657.237 132.82ZM82.7037 446.687C82.7037 444.554 81.3704 441.754 79.637 440.154C76.037 436.687 69.637 436.287 68.437 439.354C66.9704 443.22 69.1037 456.554 71.9037 461.754C73.637 464.82 74.3037 467.354 73.637 468.42C72.9704 469.22 72.437 472.82 72.3037 476.42C72.037 482.42 69.3704 487.887 66.5704 487.887C63.9037 487.887 61.3704 478.954 61.3704 469.887C61.3704 460.954 61.1037 459.887 57.3704 455.887C55.237 453.487 53.3704 450.82 53.3704 449.754C53.3704 448.82 50.5704 446.154 47.237 443.754L41.1037 439.62L37.9037 442.687C33.637 446.687 33.3704 456.82 37.3704 460.287C38.837 461.487 40.037 463.62 40.037 464.82C40.037 466.154 41.237 468.687 42.7037 470.554C46.037 474.954 46.437 488.02 43.237 490.687C42.037 491.62 40.5704 493.754 39.9037 495.487C38.837 498.154 37.9037 498.554 30.837 498.554C23.5037 498.554 22.1704 499.087 15.3704 504.02C11.3704 507.087 8.03703 510.02 8.03703 510.554C8.03703 511.087 14.1704 511.62 21.5037 511.754C28.9704 511.887 35.637 512.287 36.437 512.82C38.5704 514.154 48.037 514.287 48.837 513.087C49.9037 511.354 56.5704 511.62 58.437 513.487C59.637 514.687 60.437 514.687 61.637 513.487C62.5704 512.554 67.3704 511.887 74.037 511.887L74.4507 511.887C80.2492 511.888 83.1236 511.888 84.9796 510.514C86.8041 509.162 87.6445 506.482 89.311 501.168L89.5037 500.554C90.437 497.62 91.7704 494.687 92.3037 494.02C94.1704 491.754 93.5037 486.42 90.837 482.687C89.1037 480.42 88.5704 478.42 89.3704 477.22C90.037 476.02 89.637 474.154 88.1704 472.02C83.3704 464.82 82.5704 461.22 84.3037 456.154C85.637 452.42 85.637 451.354 84.437 450.954C83.5037 450.554 82.7037 448.687 82.7037 446.687ZM1270.17 891.887C1269.24 891.887 1267.64 890.954 1266.7 889.887C1264.57 887.22 1256.04 887.22 1256.04 889.754C1256.04 890.82 1256.7 892.154 1257.37 892.554C1258.17 892.954 1258.7 896.82 1258.7 901.087C1258.7 905.354 1259.1 909.22 1259.64 909.754C1261.24 911.22 1261.5 926.287 1260.04 927.22C1259.24 927.62 1258.7 931.087 1258.7 934.687C1258.7 938.42 1258.17 942.42 1257.5 943.62C1256.3 946.287 1258.17 954.554 1260.04 954.554C1260.84 954.554 1261.37 955.487 1261.37 956.554C1261.37 957.62 1262.57 959.754 1264.04 961.22C1265.5 962.687 1266.7 965.354 1266.7 967.087C1266.7 969.087 1267.64 970.554 1269.37 970.954C1270.97 971.354 1272.04 972.82 1272.04 974.554C1272.04 977.22 1274.17 982.42 1275.9 983.887C1278.04 985.754 1282.7 993.354 1282.7 995.22C1282.7 996.287 1283.5 997.22 1284.44 997.22C1285.24 997.22 1289.1 1000.15 1292.7 1003.75C1298.04 1008.95 1300.57 1010.29 1305.77 1011.09C1313.37 1012.29 1314.17 1010.15 1308.04 1004.82C1305.9 1002.82 1304.04 1000.55 1304.04 999.754C1304.04 999.087 1302.04 996.154 1299.5 993.487C1296.97 990.82 1293.1 986.154 1290.97 983.087C1287.5 978.287 1287.1 976.82 1287.64 971.087C1288.44 964.287 1289.64 962.554 1293.9 962.554C1296.7 962.554 1304.04 968.82 1304.04 971.087C1304.04 971.887 1306.44 973.62 1309.24 974.954C1312.04 976.42 1315.9 978.954 1317.9 980.82C1321.64 984.287 1321.9 984.287 1337.77 982.154C1342.97 981.487 1346.7 979.22 1346.7 976.954C1346.7 976.154 1345.77 975.887 1344.7 976.42C1343.64 976.82 1342.3 976.42 1341.77 975.487C1341.1 974.554 1339.37 973.087 1337.77 972.154C1330.3 968.02 1328.57 966.82 1322.3 960.82C1318.7 957.354 1315.24 954.554 1314.7 954.554C1314.17 954.554 1312.7 953.354 1311.5 952.02C1309.77 950.154 1309.37 947.62 1309.64 942.42L1310.04 935.22L1318.04 935.62C1325.37 936.02 1328.84 936.82 1334.97 940.02C1336.3 940.687 1338.57 941.22 1340.17 941.22C1341.64 941.22 1343.9 941.754 1345.1 942.42C1347.64 943.754 1358.57 939.354 1360.44 936.287C1360.97 935.487 1362.17 934.954 1363.1 935.22C1364.84 935.887 1368.04 930.154 1368.04 926.287C1368.04 924.154 1360.97 916.154 1358.84 915.754C1354.44 914.954 1339.24 914.287 1327.24 914.554C1317.64 914.687 1312.04 914.287 1311.5 913.354C1310.97 912.554 1309.64 911.887 1308.57 911.887C1307.5 911.887 1305.37 910.687 1303.77 909.22C1302.17 907.754 1299.5 906.554 1297.9 906.554C1296.17 906.554 1294.44 905.887 1294.04 905.22C1293.64 904.42 1292.04 903.887 1290.57 903.887C1287.24 903.887 1283.24 901.62 1276.97 896.154C1274.3 893.887 1271.24 891.887 1270.17 891.887ZM856.17 1183.89C854.704 1183.89 851.37 1181.75 848.57 1179.22C842.97 1173.89 842.837 1173.89 841.904 1176.42C841.237 1178.15 844.437 1185.62 846.704 1187.89C848.17 1189.35 850.704 1194.69 850.704 1196.29C850.704 1197.35 853.104 1200.69 856.037 1203.89C858.97 1207.09 861.37 1210.42 861.37 1211.49C861.37 1212.42 862.837 1213.22 864.57 1213.22C866.437 1213.22 868.304 1213.75 868.704 1214.55C869.104 1215.22 870.437 1215.89 871.637 1215.89C874.437 1215.89 873.104 1210.82 868.037 1203.35C865.77 1200.15 864.037 1196.29 864.037 1194.95C864.037 1193.49 862.837 1191.22 861.37 1189.89C859.904 1188.55 858.704 1186.69 858.704 1185.62C858.704 1184.69 857.504 1183.89 856.17 1183.89ZM822.837 1197.75C822.037 1197.09 821.37 1192.69 821.104 1187.89L820.704 1179.22L809.104 1178.82C801.637 1178.55 797.37 1178.95 797.37 1179.89C797.37 1180.69 794.037 1181.22 789.37 1181.22C782.304 1181.22 781.37 1181.49 781.37 1183.75C781.37 1185.22 782.037 1186.82 782.704 1187.22C783.504 1187.62 784.037 1190.15 784.037 1192.69C784.037 1195.22 784.57 1198.29 785.237 1199.62C790.704 1210.42 792.037 1214.02 792.037 1217.22C792.037 1220.15 793.37 1222.15 797.37 1225.35C800.304 1227.75 802.704 1230.42 802.704 1231.35C802.704 1232.95 809.104 1235.22 810.437 1234.02C810.704 1233.62 810.304 1232.42 809.37 1231.22C808.437 1230.02 808.037 1227.62 808.437 1225.35C808.97 1223.09 808.437 1220.55 807.37 1219.09C806.304 1217.62 805.37 1215.35 805.37 1213.89C805.37 1212.42 802.97 1208.02 800.037 1204.15C794.57 1196.95 793.37 1192.02 796.57 1189.35C799.104 1187.22 802.037 1188.69 804.17 1192.95C805.104 1194.95 808.57 1199.35 811.77 1202.82C815.637 1206.82 817.504 1209.75 816.97 1211.09C816.437 1212.29 816.57 1213.22 817.237 1213.22C817.77 1213.22 819.637 1216.02 821.37 1219.49C823.104 1223.09 825.504 1226.95 826.57 1228.29C827.637 1229.49 829.104 1231.89 829.904 1233.49C830.704 1235.09 832.17 1236.55 833.104 1236.95C835.504 1237.62 835.104 1233.09 832.57 1231.35C831.504 1230.42 830.17 1227.22 829.77 1224.15C829.37 1221.09 828.437 1218.55 827.904 1218.55C827.237 1218.55 826.704 1217.35 826.704 1216.02C826.704 1214.55 826.17 1212.95 825.37 1212.55C824.704 1212.15 824.037 1208.82 824.037 1205.35C824.037 1201.89 823.504 1198.55 822.837 1197.75ZM836.037 1197.22C836.837 1197.22 837.37 1196.55 837.37 1195.89C837.37 1195.09 836.837 1194.55 836.037 1194.55C835.37 1194.55 834.704 1195.09 834.704 1195.89C834.704 1196.55 835.37 1197.22 836.037 1197.22Z" fill="black"/>
</svg>
